<svg width="281" height="238" viewBox="0 0 281 238" fill="none" xmlns="http://www.w3.org/2000/svg">
<g filter="url(#filter0_d_112_5143)">
<rect x="70.7778" y="126.092" width="93" height="93" rx="10" transform="rotate(7.84035 70.7778 126.092)" fill="white"/>
<g clip-path="url(#clip0_112_5143)">
<path d="M107.719 198.369C118.66 199.876 128.752 192.228 130.259 181.286C131.765 170.344 124.118 160.254 113.175 158.747C102.233 157.24 92.143 164.888 90.6362 175.83C89.1295 186.772 96.7774 196.862 107.719 198.369Z" fill="white"/>
<path d="M91.9251 186.104L78.8632 154.031C74.5556 159.575 71.7831 166.155 70.8254 173.11C69.8677 180.065 70.7571 187.149 73.406 193.651C76.0549 200.152 80.3682 205.841 85.9138 210.147C91.4593 214.454 98.0395 217.223 104.995 218.179L126.239 190.829L126.24 190.824C124.088 193.598 121.243 195.756 117.992 197.082C114.741 198.407 111.198 198.853 107.72 198.374C104.242 197.895 100.952 196.51 98.1785 194.356C95.4049 192.203 93.2486 189.356 91.9251 186.104Z" fill="url(#paint0_linear_112_5143)"/>
<path d="M126.238 190.829L104.994 218.177C111.948 219.137 119.032 218.247 125.534 215.598C132.035 212.951 137.726 208.638 142.032 203.094C146.338 197.55 149.109 190.969 150.065 184.013C151.021 177.058 150.131 169.974 147.48 163.474L113.174 158.75L113.169 158.752C116.647 159.23 119.939 160.614 122.711 162.767C125.484 164.92 127.641 167.765 128.966 171.016C130.291 174.267 130.736 177.811 130.257 181.289C129.78 184.766 128.393 188.056 126.238 190.829Z" fill="url(#paint1_linear_112_5143)"/>
<path d="M108.287 194.245C116.95 195.438 124.938 189.383 126.131 180.721C127.324 172.059 121.269 164.07 112.607 162.877C103.945 161.684 95.9559 167.739 94.7632 176.401C93.5704 185.063 99.6253 193.052 108.287 194.245Z" fill="#1A73E8"/>
<path d="M113.175 158.751L147.482 163.476C144.835 156.973 140.522 151.282 134.978 146.976C129.434 142.668 122.855 139.897 115.9 138.94C108.945 137.982 101.86 138.873 95.3587 141.522C88.8571 144.171 83.1678 148.486 78.8634 154.03L91.9251 186.104L91.9293 186.108C90.6041 182.857 90.1563 179.314 90.6352 175.836C91.1142 172.358 92.4983 169.066 94.6513 166.294C96.8046 163.521 99.6498 161.364 102.902 160.041C106.153 158.715 109.697 158.271 113.175 158.751Z" fill="url(#paint2_linear_112_5143)"/>
</g>
</g>
<g filter="url(#filter1_d_112_5143)">
<rect x="20.585" y="11.6824" width="74" height="74" rx="10" transform="rotate(14.0005 20.585 11.6824)" fill="white"/>
<g clip-path="url(#clip1_112_5143)">
<path d="M75.7148 52.1693C75.284 48.8012 73.6838 44.8817 72.0449 43.3601C72.7022 46.4975 72.8931 49.7385 72.6108 52.9678L72.6035 53.0183C71.5546 43.9645 67.1079 39.3118 64.6086 30.9699C64.4784 30.544 64.3556 30.1152 64.2404 29.6839C64.1817 29.459 64.1309 29.2316 64.0882 29.0022C64.0015 28.5884 63.961 28.1637 63.9676 27.7369C63.9724 27.7183 63.9705 27.6988 63.9625 27.6819C63.9545 27.6651 63.9407 27.6521 63.924 27.6456C63.9082 27.6364 63.8903 27.6319 63.8721 27.6326C63.8686 27.6318 63.8612 27.6372 63.8567 27.6369L63.8338 27.644L63.8494 27.627C55.8573 30.2211 51.5177 37.6303 50.3048 41.5751C47.4928 41.0888 44.5819 41.5156 41.9517 42.7998C41.7758 42.5385 41.5864 42.2879 41.3843 42.0491C41.3409 39.5509 41.9321 37.0658 43.0964 34.853C40.2296 35.5319 37.5093 36.8293 35.1075 38.663L35.0947 38.6598C34.3714 36.9127 35.6608 32.068 35.9766 31.0676C35.6194 31.1255 35.2677 31.2231 34.9277 31.3589C33.7816 31.8519 32.676 32.4501 31.6238 33.1464C30.4271 33.9306 29.2916 34.8176 28.2291 35.798C25.7917 38.033 23.7825 40.7429 22.3171 43.7728L22.2318 43.9576C21.9784 44.5414 21.7358 45.1302 21.5041 45.7235C21.4986 45.7455 21.4892 45.7649 21.4816 45.7863C20.9075 47.0621 20.4209 48.3778 20.0255 49.7228L19.9877 49.8743C18.1606 57.2279 18.9865 64.9562 22.3022 71.5321C25.6179 78.1079 31.1822 83.0527 37.8953 85.3892C44.6084 87.7257 51.9819 87.2839 58.5585 84.1512C65.1351 81.0184 70.4364 75.4226 73.4146 68.4697C73.5552 68.1024 73.6863 67.7368 73.8229 67.3645C75.6365 62.5071 76.2867 57.2841 75.7148 52.1693ZM38.2523 67.2417C38.3644 67.3397 38.4676 67.4402 38.5838 67.5368L38.5998 67.5545C38.4833 67.453 38.3674 67.3487 38.2523 67.2417ZM72.6039 53.0256L72.6109 52.9976L72.6083 53.0291L72.6039 53.0256Z" fill="url(#paint3_linear_112_5143)"/>
<path d="M75.7149 52.1694C75.2841 48.8013 73.684 44.8817 72.045 43.3602C72.7024 46.4976 72.8933 49.7386 72.611 52.9679L72.604 52.9959L72.6014 53.0274C73.1087 60.0332 71.0313 67.0574 66.8033 72.6321C61.8476 79.0653 52.3643 84.5628 40.4987 81.222C27.6781 77.6109 18.8509 64.5504 20.0626 50.6309C20.2019 48.423 20.8559 47.449 21.4784 45.7815C20.8806 47.0482 20.3942 48.3678 20.0256 49.7229L19.9879 49.8744C18.1608 57.2279 18.9867 64.9563 22.3024 71.5321C25.6181 78.1079 31.1823 83.0527 37.8954 85.3893C44.6085 87.7258 51.982 87.284 58.5586 84.1512C65.1353 81.0185 70.4365 75.4227 73.4147 68.4698C73.5553 68.1025 73.6865 67.7369 73.8231 67.3645C75.6366 62.5072 76.2869 57.2842 75.7149 52.1694Z" fill="url(#paint4_radial_112_5143)"/>
<path d="M75.7149 52.1694C75.2841 48.8013 73.684 44.8817 72.045 43.3602C72.7024 46.4976 72.8933 49.7386 72.611 52.9679L72.604 52.9959L72.6014 53.0274C73.1087 60.0332 71.0313 67.0574 66.8033 72.6321C61.8476 79.0653 52.3643 84.5628 40.4987 81.222C27.6781 77.6109 18.8509 64.5504 20.0626 50.6309C20.2019 48.423 20.8559 47.449 21.4784 45.7815C20.8806 47.0482 20.3942 48.3678 20.0256 49.7229L19.9879 49.8744C18.1608 57.2279 18.9867 64.9563 22.3024 71.5321C25.6181 78.1079 31.1823 83.0527 37.8954 85.3893C44.6085 87.7258 51.982 87.284 58.5586 84.1512C65.1353 81.0185 70.4365 75.4227 73.4147 68.4698C73.5553 68.1025 73.6865 67.7369 73.8231 67.3645C75.6366 62.5072 76.2869 57.2842 75.7149 52.1694Z" fill="url(#paint5_radial_112_5143)"/>
<path d="M61.4751 52.2852C61.5236 52.3448 61.5679 52.4033 61.6128 52.462C61.2474 50.9817 60.6851 49.5696 59.9424 48.2674C53.6613 37.0061 62.6345 27.9172 63.8344 27.641L63.8492 27.627C55.8571 30.2211 51.5175 37.6304 50.3046 41.5752C50.6315 41.6318 50.9571 41.6816 51.2853 41.7634C53.7379 42.3801 55.9727 43.6785 57.7625 45.5266C59.5523 47.3748 60.8332 49.7066 61.4751 52.2852Z" fill="url(#paint6_radial_112_5143)"/>
<path d="M48.9754 51.1045C48.7479 51.8235 45.7003 53.7393 44.8543 53.5283C37.0254 51.5763 34.4952 56.3104 34.4952 56.3104C33.7813 60.6501 35.6868 64.8461 38.584 67.5368C38.7163 67.6599 38.8528 67.7752 38.9897 67.889C39.2274 68.0835 39.4675 68.2684 39.71 68.4436C40.7544 69.1663 41.9 69.7158 43.1086 70.074C56.6594 74.1818 63.8523 56.6575 55.2658 48.9109C57.6827 49.1692 59.8956 50.3717 61.4755 52.2851C60.8335 49.7067 59.5525 47.3749 57.7626 45.527C55.9728 43.679 53.738 42.3807 51.2855 41.7641C50.9587 41.6826 50.6319 41.6317 50.3049 41.5751C47.4929 41.0888 44.582 41.5156 41.9519 42.7997C42.2773 43.2832 42.6247 43.9082 43.3611 45.2063C44.7401 47.6344 49.0243 50.8632 48.9754 51.1045Z" fill="url(#paint7_radial_112_5143)"/>
<path d="M48.9754 51.1045C48.7479 51.8235 45.7003 53.7393 44.8543 53.5283C37.0254 51.5763 34.4952 56.3104 34.4952 56.3104C33.7813 60.6501 35.6868 64.8461 38.584 67.5368C38.7163 67.6599 38.8528 67.7752 38.9897 67.889C39.2274 68.0835 39.4675 68.2684 39.71 68.4436C40.7544 69.1663 41.9 69.7158 43.1086 70.074C56.6594 74.1818 63.8523 56.6575 55.2658 48.9109C57.6827 49.1692 59.8956 50.3717 61.4755 52.2851C60.8335 49.7067 59.5525 47.3749 57.7626 45.527C55.9728 43.679 53.738 42.3807 51.2855 41.7641C50.9587 41.6826 50.6319 41.6317 50.3049 41.5751C47.4929 41.0888 44.582 41.5156 41.9519 42.7997C42.2773 43.2832 42.6247 43.9082 43.3611 45.2063C44.7401 47.6344 49.0243 50.8632 48.9754 51.1045Z" fill="url(#paint8_radial_112_5143)"/>
<path d="M40.9113 41.5039C41.0966 41.7111 41.2477 41.8888 41.3795 42.0472C41.3361 39.5492 41.9273 37.0644 43.0913 34.8518C40.2246 35.5307 37.5042 36.8281 35.1024 38.6618C35.2376 38.6915 39.2503 39.6107 40.9113 41.5039Z" fill="url(#paint9_radial_112_5143)"/>
<path d="M20.0662 50.6318C18.8523 64.5515 27.6818 77.6118 40.5024 81.2228C52.3678 84.5644 61.8511 79.0669 66.8069 72.633C71.0347 67.0585 73.1121 60.0346 72.6049 53.0291L72.6118 53.001C72.6175 52.9783 72.6163 52.9651 72.6188 52.973L72.6115 53.0235C71.8925 60.0681 67.0062 65.8483 60.8247 69.0395L60.7996 69.0735C48.7803 75.1915 40.1742 69.4301 38.6069 67.5635C38.4903 67.462 38.3745 67.3578 38.2593 67.2507C33.2312 62.878 32.2471 56.6874 33.954 52.0144C32.5813 51.695 31.3376 50.958 30.3737 49.8929C29.4098 48.8277 28.7669 47.48 28.5231 46.0131C30.2815 45.4021 32.1449 45.2735 33.9357 45.6394C35.7264 46.0054 37.3849 46.8537 38.7531 48.1035C41.6199 50.4951 45.2912 51.5757 48.9821 51.1143C49.031 50.873 44.7468 47.6441 43.3678 45.2161C42.6314 43.918 42.2836 43.2945 41.9584 42.8103C41.7826 42.5487 41.5933 42.2979 41.3912 42.0589C41.2575 41.8992 41.1056 41.7246 40.9233 41.5149C39.2623 39.6217 35.2496 38.7025 35.1165 38.6733L35.1037 38.6701C34.3804 36.923 35.6698 32.0783 35.9857 31.0779C35.6284 31.1358 35.2768 31.2335 34.9367 31.3692C33.7907 31.8622 32.6851 32.4604 31.6329 33.1567C30.4335 33.9372 29.295 34.8208 28.2293 35.7981C25.792 38.0331 23.7828 40.743 22.3174 43.7729C22.289 43.8294 20.1734 48.1471 20.0662 50.6318Z" fill="url(#paint10_radial_112_5143)"/>
<path d="M59.9439 48.2678C60.6865 49.5712 61.2485 50.9846 61.6134 52.4661C61.7345 52.6251 61.8456 52.7815 61.9362 52.9297C66.648 60.6226 61.2146 68.4818 60.817 69.0385C66.9985 65.8473 71.882 60.0664 72.6038 53.0225C71.5545 43.9646 67.1077 39.3119 64.6085 30.97C64.4782 30.544 64.3554 30.1153 64.2403 29.684C64.1815 29.4591 64.1308 29.2317 64.0881 29.0023C64.0013 28.5884 63.9609 28.1638 63.9674 27.737C63.9722 27.7184 63.9704 27.6989 63.9623 27.682C63.9543 27.6652 63.9406 27.6522 63.9238 27.6457C63.9081 27.6365 63.8902 27.632 63.872 27.6327C63.8684 27.6319 63.861 27.6373 63.8566 27.637L63.8337 27.6441C62.6347 27.9165 53.6614 37.0062 59.9439 48.2678Z" fill="url(#paint11_radial_112_5143)"/>
<path d="M61.9332 52.9247C61.8326 52.7647 61.7249 52.6101 61.6104 52.4611C61.5656 52.4017 61.5211 52.3439 61.4726 52.2844C59.8929 50.3707 57.68 49.168 55.2631 48.9094C63.8489 56.659 56.658 74.1814 43.1057 70.0732C41.8971 69.715 40.7516 69.1655 39.7072 68.4429C39.4645 68.2681 39.2244 68.0832 38.9868 67.8883C38.8501 67.7737 38.7135 67.6592 38.5812 67.5361L38.5971 67.5537C40.1635 69.4241 48.7668 75.1848 60.7899 69.0637L60.8149 69.0297C61.2145 68.4775 66.6484 60.6161 61.9332 52.9247Z" fill="url(#paint12_radial_112_5143)"/>
<path d="M34.4949 56.3104C34.4949 56.3104 37.0251 51.5763 44.854 53.5284C45.7 53.7393 48.7497 51.8241 48.9753 51.1038C45.2845 51.5654 41.6131 50.4851 38.7461 48.0937C37.3779 46.8439 35.7194 45.9956 33.9287 45.6297C32.1379 45.2637 30.2745 45.3924 28.5161 46.0033C28.7599 47.4703 29.4027 48.8179 30.3667 49.8831C31.3306 50.9483 32.5743 51.6852 33.947 52.0046C32.2399 56.6784 33.224 62.869 38.2523 67.241C38.3645 67.3389 38.4677 67.4395 38.5839 67.5361C35.6837 64.8454 33.7812 60.6493 34.4949 56.3104Z" fill="url(#paint13_radial_112_5143)"/>
<path d="M75.7148 52.1693C75.284 48.8012 73.6838 44.8817 72.0449 43.3601C72.7022 46.4975 72.8931 49.7385 72.6108 52.9678L72.6035 53.0183C71.5546 43.9645 67.1079 39.3118 64.6086 30.9699C64.4784 30.544 64.3556 30.1152 64.2404 29.6839C64.1817 29.459 64.1309 29.2316 64.0882 29.0022C64.0015 28.5884 63.961 28.1637 63.9676 27.7369C63.9724 27.7183 63.9705 27.6988 63.9625 27.6819C63.9545 27.6651 63.9407 27.6521 63.924 27.6456C63.9082 27.6364 63.8903 27.6319 63.8721 27.6326C63.8686 27.6318 63.8612 27.6372 63.8567 27.6369L63.8338 27.644L63.8494 27.627C55.8573 30.2211 51.5177 37.6303 50.3048 41.5751C50.6317 41.6317 50.9573 41.6815 51.2855 41.7633C53.7381 42.38 55.9729 43.6785 57.7627 45.5266C59.5525 47.3747 60.8334 49.7066 61.4753 52.2851C59.8956 50.3714 57.6827 49.1687 55.2658 48.9102C63.8516 56.6597 56.6606 74.1822 43.1084 70.074C41.8998 69.7158 40.7542 69.1663 39.7098 68.4436C39.4672 68.2689 39.2271 68.084 38.9895 67.889C38.8528 67.7745 38.7161 67.6599 38.5838 67.5368L38.5998 67.5545C38.4833 67.453 38.3674 67.3487 38.2523 67.2417C38.3644 67.3397 38.4676 67.4402 38.5838 67.5368C35.6838 64.8454 33.7812 60.6501 34.495 56.3104C34.495 56.3104 37.0252 51.5763 44.8541 53.5283C45.7001 53.7393 48.7498 51.8241 48.9754 51.1038C49.0241 50.8632 44.7401 47.6336 43.3611 45.2056C42.6245 43.9082 42.2767 43.2847 41.9515 42.8005C41.7757 42.539 41.5864 42.2881 41.3843 42.0491C41.3409 39.5509 41.9321 37.0658 43.0964 34.853C40.2296 35.5319 37.5093 36.8293 35.1075 38.663L35.0947 38.6598C34.3714 36.9127 35.6608 32.068 35.9766 31.0676C35.6194 31.1255 35.2677 31.2231 34.9277 31.3589C33.7816 31.8519 32.676 32.4501 31.6238 33.1464C30.4271 33.9306 29.2916 34.8176 28.2291 35.798C25.7917 38.033 23.7825 40.7429 22.3171 43.7728L22.2318 43.9576C22.1158 44.2022 21.5561 45.4573 21.4525 45.7308C21.4472 45.752 21.4581 45.708 21.4525 45.7308C20.9023 47.0323 20.4257 48.3654 20.0255 49.7228L19.9877 49.8743C18.1606 57.2279 18.9865 64.9562 22.3022 71.5321C25.6179 78.1079 31.1822 83.0527 37.8953 85.3892C44.6084 87.7257 51.9819 87.2839 58.5585 84.1512C65.1351 81.0184 70.4364 75.4226 73.4146 68.4697C73.5552 68.1024 73.6863 67.7368 73.8229 67.3645C75.6365 62.5071 76.2867 57.2841 75.7148 52.1693Z" fill="url(#paint14_linear_112_5143)"/>
</g>
</g>
<g filter="url(#filter2_d_112_5143)">
<rect x="150" y="35.6499" width="100" height="100" rx="10" transform="rotate(-20.8854 150 35.6499)" fill="white"/>
<g clip-path="url(#clip2_112_5143)">
<path d="M254.598 71.8687C253.736 72.8432 252.814 73.7636 251.839 74.6247C248.732 77.3633 245.157 79.5188 241.285 80.9875C226.349 86.6867 209.418 81.3771 204.387 68.1928C203.732 66.4172 203.562 64.4988 203.895 62.6356C204.229 60.7724 205.053 59.0319 206.284 57.5939C192.992 63.3168 194.891 78.7192 198.038 86.9669C206.936 110.286 229.33 104.45 233.961 102.683C236.457 101.73 239.946 99.5675 241.934 97.9918L242.294 97.6952C249.844 91.3703 255.015 82.6636 256.957 73.0081C257.017 72.7138 256.977 72.4078 256.844 72.1386C256.71 71.8693 256.491 71.6522 256.22 71.5215C255.95 71.3908 255.644 71.354 255.35 71.4169C255.056 71.4797 254.792 71.6387 254.598 71.8687Z" fill="url(#paint15_linear_112_5143)"/>
<path opacity="0.35" d="M254.598 71.8687C253.736 72.8432 252.814 73.7636 251.839 74.6247C248.732 77.3633 245.157 79.5188 241.285 80.9875C226.349 86.6867 209.418 81.3771 204.387 68.1928C203.732 66.4172 203.562 64.4988 203.895 62.6356C204.229 60.7724 205.053 59.0319 206.284 57.5939C192.992 63.3168 194.891 78.7192 198.038 86.9669C206.936 110.286 229.33 104.45 233.961 102.683C236.457 101.73 239.946 99.5675 241.934 97.9918L242.294 97.6952C249.844 91.3703 255.015 82.6636 256.957 73.0081C257.017 72.7138 256.977 72.4078 256.844 72.1386C256.71 71.8693 256.491 71.6522 256.22 71.5215C255.95 71.3908 255.644 71.354 255.35 71.4169C255.056 71.4797 254.792 71.6387 254.598 71.8687Z" fill="url(#paint16_radial_112_5143)"/>
<path d="M221.164 103.024C217.682 102.351 214.368 100.993 211.416 99.0273C208.079 96.8613 205.257 93.9915 203.147 90.6192C201.037 87.2469 199.69 83.4537 199.201 79.5058C198.712 75.5579 199.092 71.5507 200.316 67.7655C201.54 63.9803 203.577 60.5086 206.284 57.594C207.092 56.7542 208.454 55.2727 210.708 54.4598C212.289 53.8696 213.985 53.6537 215.663 53.8288C217.342 54.0039 218.957 54.5653 220.382 55.469C222.306 56.6845 223.796 58.4783 224.637 60.5929C224.612 60.5266 222.771 32.522 189.799 45.103C175.942 50.3903 169.565 67.8877 173.967 79.4244C176.241 85.548 179.851 91.088 184.534 95.6417C192.157 103.004 202.219 107.311 212.809 107.744C223.398 108.177 233.778 104.706 241.977 97.9901C239.083 100.282 235.727 101.919 232.14 102.789C228.552 103.658 224.819 103.739 221.197 103.026L221.164 103.024Z" fill="url(#paint17_linear_112_5143)"/>
<path opacity="0.41" d="M221.164 103.024C217.682 102.351 214.368 100.993 211.416 99.0273C208.079 96.8613 205.257 93.9915 203.147 90.6192C201.037 87.2469 199.69 83.4537 199.201 79.5058C198.712 75.5579 199.092 71.5507 200.316 67.7655C201.54 63.9803 203.577 60.5086 206.284 57.594C207.092 56.7542 208.454 55.2727 210.708 54.4598C212.289 53.8696 213.985 53.6537 215.663 53.8288C217.342 54.0039 218.957 54.5653 220.382 55.469C222.306 56.6845 223.796 58.4783 224.637 60.5929C224.612 60.5266 222.771 32.522 189.799 45.103C175.942 50.3903 169.565 67.8877 173.967 79.4244C176.241 85.548 179.851 91.088 184.534 95.6417C192.157 103.004 202.219 107.311 212.809 107.744C223.398 108.177 233.778 104.706 241.977 97.9901C239.083 100.282 235.727 101.919 232.14 102.789C228.552 103.658 224.819 103.739 221.197 103.026L221.164 103.024Z" fill="url(#paint18_radial_112_5143)"/>
<path d="M224.724 68.1965C224.595 68.6255 223.983 69.3831 224.364 70.3805C224.678 71.2043 225.517 71.7918 226.725 72.0941C232.468 73.5186 240.866 69.8369 240.888 69.8284C244.248 68.5371 247.2 66.3679 249.437 63.5471C251.704 60.7307 253.195 57.3704 253.763 53.7997C254.331 50.2289 253.955 46.5718 252.673 43.1911C250.056 36.0863 245.654 32.3781 243.805 30.6971C232.124 20.1659 214.816 18.15 199.116 24.1406C188.498 28.1909 179.901 36.2581 175.185 46.5974C170.468 56.9368 170.012 68.7171 173.913 79.3906C169.664 67.7993 177.574 54.1104 191.209 48.9074C192.314 48.4859 198.655 46.1892 205.679 47.0275C211.87 47.7677 215.82 50.0068 218.935 52.5318C222.17 55.1554 224.141 59.2777 224.788 60.9727C225.435 62.6677 225.529 65.5102 224.724 68.1965Z" fill="url(#paint19_radial_112_5143)"/>
<path d="M224.724 68.1965C224.595 68.6255 223.983 69.3831 224.364 70.3805C224.678 71.2043 225.517 71.7918 226.725 72.0941C232.468 73.5186 240.866 69.8369 240.888 69.8284C244.248 68.5371 247.2 66.3679 249.437 63.5471C251.704 60.7307 253.195 57.3704 253.763 53.7997C254.331 50.2289 253.955 46.5718 252.673 43.1911C250.056 36.0863 245.654 32.3781 243.805 30.6971C232.124 20.1659 214.816 18.15 199.116 24.1406C188.498 28.1909 179.901 36.2581 175.185 46.5974C170.468 56.9368 170.012 68.7171 173.913 79.3906C169.664 67.7993 177.574 54.1104 191.209 48.9074C192.314 48.4859 198.655 46.1892 205.679 47.0275C211.87 47.7677 215.82 50.0068 218.935 52.5318C222.17 55.1554 224.141 59.2777 224.788 60.9727C225.435 62.6677 225.529 65.5102 224.724 68.1965Z" fill="url(#paint20_radial_112_5143)"/>
</g>
</g>
<defs>
<filter id="filter0_d_112_5143" x="55.3608" y="127.361" width="110.278" height="110.278" filterUnits="userSpaceOnUse" color-interpolation-filters="sRGB">
<feFlood flood-opacity="0" result="BackgroundImageFix"/>
<feColorMatrix in="SourceAlpha" type="matrix" values="0 0 0 0 0 0 0 0 0 0 0 0 0 0 0 0 0 0 127 0" result="hardAlpha"/>
<feOffset dy="4"/>
<feGaussianBlur stdDeviation="2"/>
<feComposite in2="hardAlpha" operator="out"/>
<feColorMatrix type="matrix" values="0 0 0 0 0 0 0 0 0 0 0 0 0 0 0 0 0 0 0.25 0"/>
<feBlend mode="normal" in2="BackgroundImageFix" result="effect1_dropShadow_112_5143"/>
<feBlend mode="normal" in="SourceGraphic" in2="effect1_dropShadow_112_5143" result="shape"/>
</filter>
<filter id="filter1_d_112_5143" x="0.801758" y="13.8022" width="93.4648" height="93.4648" filterUnits="userSpaceOnUse" color-interpolation-filters="sRGB">
<feFlood flood-opacity="0" result="BackgroundImageFix"/>
<feColorMatrix in="SourceAlpha" type="matrix" values="0 0 0 0 0 0 0 0 0 0 0 0 0 0 0 0 0 0 127 0" result="hardAlpha"/>
<feOffset dy="4"/>
<feGaussianBlur stdDeviation="2"/>
<feComposite in2="hardAlpha" operator="out"/>
<feColorMatrix type="matrix" values="0 0 0 0 0 0 0 0 0 0 0 0 0 0 0 0 0 0 0.25 0"/>
<feBlend mode="normal" in2="BackgroundImageFix" result="effect1_dropShadow_112_5143"/>
<feBlend mode="normal" in="SourceGraphic" in2="effect1_dropShadow_112_5143" result="shape"/>
</filter>
<filter id="filter2_d_112_5143" x="148.905" y="2.90527" width="131.269" height="131.269" filterUnits="userSpaceOnUse" color-interpolation-filters="sRGB">
<feFlood flood-opacity="0" result="BackgroundImageFix"/>
<feColorMatrix in="SourceAlpha" type="matrix" values="0 0 0 0 0 0 0 0 0 0 0 0 0 0 0 0 0 0 127 0" result="hardAlpha"/>
<feOffset dy="4"/>
<feGaussianBlur stdDeviation="2"/>
<feComposite in2="hardAlpha" operator="out"/>
<feColorMatrix type="matrix" values="0 0 0 0 0 0 0 0 0 0 0 0 0 0 0 0 0 0 0.25 0"/>
<feBlend mode="normal" in2="BackgroundImageFix" result="effect1_dropShadow_112_5143"/>
<feBlend mode="normal" in="SourceGraphic" in2="effect1_dropShadow_112_5143" result="shape"/>
</filter>
<linearGradient id="paint0_linear_112_5143" x1="109.621" y1="216.295" x2="83.4943" y2="152.145" gradientUnits="userSpaceOnUse">
<stop stop-color="#1E8E3E"/>
<stop offset="1" stop-color="#34A853"/>
</linearGradient>
<linearGradient id="paint1_linear_112_5143" x1="99.1975" y1="217.487" x2="141.69" y2="162.786" gradientUnits="userSpaceOnUse">
<stop stop-color="#FCC934"/>
<stop offset="1" stop-color="#FBBC04"/>
</linearGradient>
<linearGradient id="paint2_linear_112_5143" x1="78.1815" y1="158.98" x2="146.8" y2="168.429" gradientUnits="userSpaceOnUse">
<stop stop-color="#D93025"/>
<stop offset="1" stop-color="#EA4335"/>
</linearGradient>
<linearGradient id="paint3_linear_112_5143" x1="74.798" y1="40.3224" x2="15.3203" y2="72.1249" gradientUnits="userSpaceOnUse">
<stop offset="0.048" stop-color="#FFF44F"/>
<stop offset="0.111" stop-color="#FFE847"/>
<stop offset="0.225" stop-color="#FFC830"/>
<stop offset="0.368" stop-color="#FF980E"/>
<stop offset="0.401" stop-color="#FF8B16"/>
<stop offset="0.462" stop-color="#FF672A"/>
<stop offset="0.534" stop-color="#FF3647"/>
<stop offset="0.705" stop-color="#E31587"/>
</linearGradient>
<radialGradient id="paint4_radial_112_5143" cx="0" cy="0" r="1" gradientUnits="userSpaceOnUse" gradientTransform="translate(73.35 37.1336) rotate(14.0005) scale(59.152 63.0865)">
<stop offset="0.129" stop-color="#FFBD4F"/>
<stop offset="0.186" stop-color="#FFAC31"/>
<stop offset="0.247" stop-color="#FF9D17"/>
<stop offset="0.283" stop-color="#FF980E"/>
<stop offset="0.403" stop-color="#FF563B"/>
<stop offset="0.467" stop-color="#FF3750"/>
<stop offset="0.71" stop-color="#F5156C"/>
<stop offset="0.782" stop-color="#EB0878"/>
<stop offset="0.86" stop-color="#E50080"/>
</radialGradient>
<radialGradient id="paint5_radial_112_5143" cx="0" cy="0" r="1" gradientUnits="userSpaceOnUse" gradientTransform="translate(46.1377 56.9297) rotate(14.0005) scale(59.152 63.0865)">
<stop offset="0.3" stop-color="#960E18"/>
<stop offset="0.351" stop-color="#B11927" stop-opacity="0.74"/>
<stop offset="0.435" stop-color="#DB293D" stop-opacity="0.343"/>
<stop offset="0.497" stop-color="#F5334B" stop-opacity="0.094"/>
<stop offset="0.53" stop-color="#FF3750" stop-opacity="0"/>
</radialGradient>
<radialGradient id="paint6_radial_112_5143" cx="0" cy="0" r="1" gradientUnits="userSpaceOnUse" gradientTransform="translate(62.7604 19.7382) rotate(14.0005) scale(42.8531 45.7035)">
<stop offset="0.132" stop-color="#FFF44F"/>
<stop offset="0.252" stop-color="#FFDC3E"/>
<stop offset="0.506" stop-color="#FF9D12"/>
<stop offset="0.526" stop-color="#FF980E"/>
</radialGradient>
<radialGradient id="paint7_radial_112_5143" cx="0" cy="0" r="1" gradientUnits="userSpaceOnUse" gradientTransform="translate(35.8025 71.336) rotate(14.0005) scale(28.1649 30.0382)">
<stop offset="0.353" stop-color="#3A8EE6"/>
<stop offset="0.472" stop-color="#5C79F0"/>
<stop offset="0.669" stop-color="#9059FF"/>
<stop offset="1" stop-color="#C139E6"/>
</radialGradient>
<radialGradient id="paint8_radial_112_5143" cx="0" cy="0" r="1" gradientUnits="userSpaceOnUse" gradientTransform="translate(50.5249 52.695) rotate(-0.458286) scale(14.9894 18.5751)">
<stop offset="0.206" stop-color="#9059FF" stop-opacity="0"/>
<stop offset="0.278" stop-color="#8C4FF3" stop-opacity="0.064"/>
<stop offset="0.747" stop-color="#7716A8" stop-opacity="0.45"/>
<stop offset="0.975" stop-color="#6E008B" stop-opacity="0.6"/>
</radialGradient>
<radialGradient id="paint9_radial_112_5143" cx="0" cy="0" r="1" gradientUnits="userSpaceOnUse" gradientTransform="translate(52.2771 29.219) rotate(14.0005) scale(20.2618 21.6095)">
<stop stop-color="#FFE226"/>
<stop offset="0.121" stop-color="#FFDB27"/>
<stop offset="0.295" stop-color="#FFC82A"/>
<stop offset="0.502" stop-color="#FFA930"/>
<stop offset="0.732" stop-color="#FF7E37"/>
<stop offset="0.792" stop-color="#FF7139"/>
</radialGradient>
<radialGradient id="paint10_radial_112_5143" cx="0" cy="0" r="1" gradientUnits="userSpaceOnUse" gradientTransform="translate(71.0466 19.7731) rotate(14.0005) scale(86.4479 92.1979)">
<stop offset="0.113" stop-color="#FFF44F"/>
<stop offset="0.456" stop-color="#FF980E"/>
<stop offset="0.622" stop-color="#FF5634"/>
<stop offset="0.716" stop-color="#FF3647"/>
<stop offset="0.904" stop-color="#E31587"/>
</radialGradient>
<radialGradient id="paint11_radial_112_5143" cx="0" cy="0" r="1" gradientUnits="userSpaceOnUse" gradientTransform="translate(62.7362 22.9845) rotate(98.3497) scale(67.529 41.6101)">
<stop stop-color="#FFF44F"/>
<stop offset="0.06" stop-color="#FFE847"/>
<stop offset="0.168" stop-color="#FFC830"/>
<stop offset="0.304" stop-color="#FF980E"/>
<stop offset="0.356" stop-color="#FF8B16"/>
<stop offset="0.455" stop-color="#FF672A"/>
<stop offset="0.57" stop-color="#FF3647"/>
<stop offset="0.737" stop-color="#E31587"/>
</radialGradient>
<radialGradient id="paint12_radial_112_5143" cx="0" cy="0" r="1" gradientUnits="userSpaceOnUse" gradientTransform="translate(49.8778 36.8697) rotate(14.0005) scale(53.9709 57.5607)">
<stop offset="0.137" stop-color="#FFF44F"/>
<stop offset="0.48" stop-color="#FF980E"/>
<stop offset="0.592" stop-color="#FF5634"/>
<stop offset="0.655" stop-color="#FF3647"/>
<stop offset="0.904" stop-color="#E31587"/>
</radialGradient>
<radialGradient id="paint13_radial_112_5143" cx="0" cy="0" r="1" gradientUnits="userSpaceOnUse" gradientTransform="translate(62.886 43.5856) rotate(14.0005) scale(59.0707 62.9998)">
<stop offset="0.094" stop-color="#FFF44F"/>
<stop offset="0.231" stop-color="#FFE141"/>
<stop offset="0.509" stop-color="#FFAF1E"/>
<stop offset="0.626" stop-color="#FF980E"/>
</radialGradient>
<linearGradient id="paint14_linear_112_5143" x1="74.3116" y1="39.9339" x2="23.2452" y2="68.4219" gradientUnits="userSpaceOnUse">
<stop offset="0.167" stop-color="#FFF44F" stop-opacity="0.8"/>
<stop offset="0.266" stop-color="#FFF44F" stop-opacity="0.634"/>
<stop offset="0.489" stop-color="#FFF44F" stop-opacity="0.217"/>
<stop offset="0.6" stop-color="#FFF44F" stop-opacity="0"/>
</linearGradient>
<linearGradient id="paint15_linear_112_5143" x1="198.573" y1="88.3683" x2="254.864" y2="66.8892" gradientUnits="userSpaceOnUse">
<stop stop-color="#0C59A4"/>
<stop offset="1" stop-color="#114A8B"/>
</linearGradient>
<radialGradient id="paint16_radial_112_5143" cx="0" cy="0" r="1" gradientUnits="userSpaceOnUse" gradientTransform="translate(229.833 76.9487) rotate(-20.8854) scale(32.223 30.6118)">
<stop offset="0.72" stop-opacity="0"/>
<stop offset="0.95" stop-opacity="0.53"/>
<stop offset="1"/>
</radialGradient>
<linearGradient id="paint17_linear_112_5143" x1="218.932" y1="52.6268" x2="198.386" y2="104.339" gradientUnits="userSpaceOnUse">
<stop stop-color="#1B9DE2"/>
<stop offset="0.16" stop-color="#1595DF"/>
<stop offset="0.67" stop-color="#0680D7"/>
<stop offset="1" stop-color="#0078D4"/>
</linearGradient>
<radialGradient id="paint18_radial_112_5143" cx="0" cy="0" r="1" gradientUnits="userSpaceOnUse" gradientTransform="translate(204.966 93.8692) rotate(-102.27) scale(48.4547 39.1466)">
<stop offset="0.76" stop-opacity="0"/>
<stop offset="0.95" stop-opacity="0.5"/>
<stop offset="1"/>
</radialGradient>
<radialGradient id="paint19_radial_112_5143" cx="0" cy="0" r="1" gradientUnits="userSpaceOnUse" gradientTransform="translate(172.583 51.3959) rotate(71.4052) scale(68.4432 145.77)">
<stop stop-color="#35C1F1"/>
<stop offset="0.11" stop-color="#34C1ED"/>
<stop offset="0.23" stop-color="#2FC2DF"/>
<stop offset="0.31" stop-color="#2BC3D2"/>
<stop offset="0.67" stop-color="#36C752"/>
</radialGradient>
<radialGradient id="paint20_radial_112_5143" cx="0" cy="0" r="1" gradientUnits="userSpaceOnUse" gradientTransform="translate(243.813 35.0752) rotate(52.8544) scale(32.8851 26.7422)">
<stop stop-color="#66EB6E"/>
<stop offset="1" stop-color="#66EB6E" stop-opacity="0"/>
</radialGradient>
<clipPath id="clip0_112_5143">
<rect width="80.4324" height="80.4324" fill="white" transform="translate(76.144 133.174) rotate(7.84035)"/>
</clipPath>
<clipPath id="clip1_112_5143">
<rect width="64" height="64" fill="white" transform="translate(24.2266 17.7435) rotate(14.0005)"/>
</clipPath>
<clipPath id="clip2_112_5143">
<rect width="86.4865" height="86.4865" fill="white" transform="translate(158.721 39.554) rotate(-20.8854)"/>
</clipPath>
</defs>
</svg>
