<svg width="1728" height="1117" viewBox="0 0 1728 1117" fill="none" xmlns="http://www.w3.org/2000/svg">
<rect width="1728" height="1117" fill="white"/>
<rect x="1209" y="699" width="199" height="203" fill="#007AFF" fill-opacity="0.14"/>
<path d="M356.199 304.909V311H323.264V256.747H330.031V304.909H356.199ZM377.705 311.677C366.877 311.677 359.583 303.894 359.583 291.449C359.583 278.967 366.877 271.222 377.705 271.222C388.496 271.222 395.79 278.967 395.79 291.449C395.79 303.894 388.496 311.677 377.705 311.677ZM377.705 305.924C384.623 305.924 389.135 300.661 389.135 291.449C389.135 282.238 384.623 276.974 377.705 276.974C370.787 276.974 366.238 282.238 366.238 291.449C366.238 300.661 370.787 305.924 377.705 305.924ZM402.407 311V271.898H408.573V278.29H408.723C410.001 273.966 413.611 271.222 418.198 271.222C419.326 271.222 420.303 271.41 420.83 271.485V277.839C420.303 277.651 418.912 277.463 417.333 277.463C412.257 277.463 408.949 281.11 408.949 286.637V311H402.407ZM439.967 276.899C433.838 276.899 429.552 281.599 429.139 288.103H450.381C450.231 281.561 446.133 276.899 439.967 276.899ZM450.231 299.796H456.66C455.532 306.639 448.915 311.677 440.38 311.677C429.176 311.677 422.371 303.894 422.371 291.6C422.371 279.456 429.289 271.222 440.08 271.222C450.645 271.222 457.149 278.892 457.149 290.735V293.216H429.101V293.592C429.101 301.074 433.5 306 440.531 306C445.494 306 449.141 303.48 450.231 299.796ZM463.766 311V271.898H469.932V278.14H470.083C471.925 274.004 475.91 271.222 481.174 271.222C486.513 271.222 490.46 273.929 492.152 278.666H492.303C494.483 274.004 499.07 271.222 504.56 271.222C512.305 271.222 517.305 276.26 517.305 284.005V311H510.763V285.509C510.763 280.17 507.793 277.012 502.642 277.012C497.454 277.012 493.807 280.847 493.807 286.148V311H487.265V284.794C487.265 280.095 484.106 277.012 479.256 277.012C474.068 277.012 470.308 281.072 470.308 286.486V311H463.766ZM541.781 311V271.898H548.323V311H541.781ZM545.052 265.319C542.834 265.319 540.992 263.477 540.992 261.258C540.992 259.002 542.834 257.198 545.052 257.198C547.308 257.198 549.15 259.002 549.15 261.258C549.15 263.477 547.308 265.319 545.052 265.319ZM576.146 271.222C586.109 271.222 592.876 279.192 592.876 291.449C592.876 303.706 586.146 311.677 576.296 311.677C570.694 311.677 566.182 308.932 563.851 304.646H563.701V324.046H557.159V271.898H563.362V278.516H563.513C565.919 274.117 570.468 271.222 576.146 271.222ZM574.867 305.924C581.823 305.924 586.184 300.322 586.184 291.449C586.184 282.614 581.823 276.974 574.867 276.974C568.175 276.974 563.663 282.764 563.663 291.449C563.663 300.172 568.175 305.924 574.867 305.924ZM598.817 282.689C598.817 275.997 604.795 271.222 613.405 271.222C621.488 271.222 627.429 276.034 627.729 282.651H621.488C621.037 278.892 617.992 276.561 613.179 276.561C608.404 276.561 605.246 278.929 605.246 282.351C605.246 285.058 607.314 286.862 611.75 287.99L617.804 289.457C625.699 291.449 628.557 294.307 628.557 300.059C628.557 306.864 622.127 311.677 612.991 311.677C604.419 311.677 598.441 307.015 597.764 300.097H604.306C605.021 304.157 608.104 306.338 613.405 306.338C618.706 306.338 621.977 304.082 621.977 300.548C621.977 297.766 620.36 296.262 615.961 295.096L609.081 293.329C602.201 291.562 598.817 288.028 598.817 282.689ZM667.47 271.898V311H661.267V304.646H661.116C658.785 309.158 654.725 311.677 648.709 311.677C640.174 311.677 635.174 306.15 635.174 297.277V271.898H641.716V296.111C641.716 302.465 644.686 305.887 650.739 305.887C657.093 305.887 660.928 301.525 660.928 294.871V271.898H667.47ZM675.967 311V271.898H682.133V278.14H682.284C684.126 274.004 688.111 271.222 693.375 271.222C698.714 271.222 702.662 273.929 704.354 278.666H704.504C706.685 274.004 711.271 271.222 716.761 271.222C724.506 271.222 729.506 276.26 729.506 284.005V311H722.964V285.509C722.964 280.17 719.994 277.012 714.843 277.012C709.655 277.012 706.008 280.847 706.008 286.148V311H699.466V284.794C699.466 280.095 696.308 277.012 691.458 277.012C686.269 277.012 682.509 281.072 682.509 286.486V311H675.967ZM768.458 311.677C758.494 311.677 751.727 303.706 751.727 291.449C751.727 279.192 758.457 271.222 768.307 271.222C773.909 271.222 778.421 273.966 780.752 278.252H780.902V256.747H787.444V311H781.203V304.383H781.09C778.571 308.895 774.097 311.677 768.458 311.677ZM769.698 276.974C762.78 276.974 758.419 282.614 758.419 291.449C758.419 300.322 762.78 305.924 769.698 305.924C776.428 305.924 780.94 300.209 780.94 291.449C780.94 282.727 776.428 276.974 769.698 276.974ZM812.484 311.677C801.656 311.677 794.362 303.894 794.362 291.449C794.362 278.967 801.656 271.222 812.484 271.222C823.275 271.222 830.569 278.967 830.569 291.449C830.569 303.894 823.275 311.677 812.484 311.677ZM812.484 305.924C819.402 305.924 823.914 300.661 823.914 291.449C823.914 282.238 819.402 276.974 812.484 276.974C805.566 276.974 801.017 282.238 801.017 291.449C801.017 300.661 805.566 305.924 812.484 305.924ZM837.524 311V256.747H844.066V311H837.524ZM869.106 311.677C858.278 311.677 850.984 303.894 850.984 291.449C850.984 278.967 858.278 271.222 869.106 271.222C879.897 271.222 887.191 278.967 887.191 291.449C887.191 303.894 879.897 311.677 869.106 311.677ZM869.106 305.924C876.024 305.924 880.536 300.661 880.536 291.449C880.536 282.238 876.024 276.974 869.106 276.974C862.188 276.974 857.639 282.238 857.639 291.449C857.639 300.661 862.188 305.924 869.106 305.924ZM893.808 311V271.898H899.974V278.29H900.125C901.403 273.966 905.012 271.222 909.599 271.222C910.727 271.222 911.705 271.41 912.231 271.485V277.839C911.705 277.651 910.313 277.463 908.734 277.463C903.659 277.463 900.35 281.11 900.35 286.637V311H893.808ZM932.684 282.689C932.684 275.997 938.662 271.222 947.272 271.222C955.355 271.222 961.296 276.034 961.597 282.651H955.355C954.904 278.892 951.859 276.561 947.046 276.561C942.271 276.561 939.113 278.929 939.113 282.351C939.113 285.058 941.181 286.862 945.618 287.99L951.671 289.457C959.566 291.449 962.424 294.307 962.424 300.059C962.424 306.864 955.995 311.677 946.858 311.677C938.286 311.677 932.308 307.015 931.631 300.097H938.173C938.888 304.157 941.971 306.338 947.272 306.338C952.573 306.338 955.844 304.082 955.844 300.548C955.844 297.766 954.228 296.262 949.829 295.096L942.948 293.329C936.068 291.562 932.684 288.028 932.684 282.689ZM969.567 311V271.898H976.109V311H969.567ZM972.838 265.319C970.62 265.319 968.778 263.477 968.778 261.258C968.778 259.002 970.62 257.198 972.838 257.198C975.094 257.198 976.937 259.002 976.937 261.258C976.937 263.477 975.094 265.319 972.838 265.319ZM987.05 262.461H993.592V271.898H1001.19V277.275H993.592V300.51C993.592 304.082 995.096 305.699 998.442 305.699C999.194 305.699 1000.7 305.586 1001.15 305.511V311C1000.36 311.188 998.555 311.301 997.014 311.301C989.833 311.301 987.05 308.368 987.05 300.849V277.275H981.223V271.898H987.05V262.461ZM1036.87 306.112C1043.03 306.112 1047.77 301.789 1047.77 296.149V292.953L1037.32 293.592C1032.05 293.931 1029.05 296.262 1029.05 299.946C1029.05 303.668 1032.17 306.112 1036.87 306.112ZM1035.4 311.677C1027.62 311.677 1022.39 306.977 1022.39 299.946C1022.39 293.254 1027.54 289.043 1036.57 288.517L1047.77 287.877V284.606C1047.77 279.832 1044.61 276.974 1039.2 276.974C1034.16 276.974 1031 279.343 1030.17 283.178H1023.86C1024.31 276.41 1030.1 271.222 1039.35 271.222C1048.52 271.222 1054.31 276.185 1054.31 283.967V311H1048.11V304.27H1047.96C1045.63 308.744 1040.66 311.677 1035.4 311.677ZM1062.62 311V271.898H1068.79V278.14H1068.94C1070.78 274.004 1074.77 271.222 1080.03 271.222C1085.37 271.222 1089.32 273.929 1091.01 278.666H1091.16C1093.34 274.004 1097.93 271.222 1103.42 271.222C1111.16 271.222 1116.16 276.26 1116.16 284.005V311H1109.62V285.509C1109.62 280.17 1106.65 277.012 1101.5 277.012C1096.31 277.012 1092.66 280.847 1092.66 286.148V311H1086.12V284.794C1086.12 280.095 1082.96 277.012 1078.11 277.012C1072.92 277.012 1069.16 281.072 1069.16 286.486V311H1062.62ZM1140.19 276.899C1134.06 276.899 1129.77 281.599 1129.36 288.103H1150.6C1150.45 281.561 1146.35 276.899 1140.19 276.899ZM1150.45 299.796H1156.88C1155.75 306.639 1149.13 311.677 1140.6 311.677C1129.4 311.677 1122.59 303.894 1122.59 291.6C1122.59 279.456 1129.51 271.222 1140.3 271.222C1150.86 271.222 1157.37 278.892 1157.37 290.735V293.216H1129.32V293.592C1129.32 301.074 1133.72 306 1140.75 306C1145.71 306 1149.36 303.48 1150.45 299.796ZM1166.09 262.461H1172.63V271.898H1180.23V277.275H1172.63V300.51C1172.63 304.082 1174.14 305.699 1177.48 305.699C1178.23 305.699 1179.74 305.586 1180.19 305.511V311C1179.4 311.188 1177.6 311.301 1176.05 311.301C1168.87 311.301 1166.09 308.368 1166.09 300.849V277.275H1160.26V271.898H1166.09V262.461ZM1191.69 321.791H1186.24L1189.89 302.653H1196.85L1191.69 321.791ZM354.733 351.719H348.341C347.401 347.471 344.093 343.974 338.34 343.974C331.573 343.974 326.986 349.576 326.986 358.449C326.986 367.548 331.648 372.924 338.416 372.924C343.754 372.924 347.251 370.104 348.379 365.405H354.808C353.793 373.188 347.251 378.677 338.378 378.677C327.55 378.677 320.331 371.044 320.331 358.449C320.331 346.117 327.512 338.222 338.303 338.222C348.078 338.222 353.906 344.688 354.733 351.719ZM377.028 378.677C366.2 378.677 358.906 370.894 358.906 358.449C358.906 345.967 366.2 338.222 377.028 338.222C387.819 338.222 395.113 345.967 395.113 358.449C395.113 370.894 387.819 378.677 377.028 378.677ZM377.028 372.924C383.946 372.924 388.458 367.661 388.458 358.449C388.458 349.238 383.946 343.974 377.028 343.974C370.11 343.974 365.561 349.238 365.561 358.449C365.561 367.661 370.11 372.924 377.028 372.924ZM401.73 378V338.898H407.896V345.14H408.046C410.227 340.929 414.4 338.222 420.454 338.222C429.026 338.222 433.989 343.749 433.989 352.622V378H427.447V353.787C427.447 347.471 424.477 344.012 418.461 344.012C412.295 344.012 408.272 348.373 408.272 354.99V378H401.73ZM441.659 349.689C441.659 342.997 447.637 338.222 456.247 338.222C464.33 338.222 470.271 343.034 470.571 349.651H464.33C463.879 345.892 460.833 343.561 456.021 343.561C451.246 343.561 448.088 345.929 448.088 349.351C448.088 352.058 450.156 353.862 454.592 354.99L460.646 356.457C468.541 358.449 471.398 361.307 471.398 367.059C471.398 373.864 464.969 378.677 455.833 378.677C447.261 378.677 441.283 374.015 440.606 367.097H447.148C447.862 371.157 450.945 373.338 456.247 373.338C461.548 373.338 464.819 371.082 464.819 367.548C464.819 364.766 463.202 363.262 458.803 362.096L451.923 360.329C445.042 358.562 441.659 355.028 441.659 349.689ZM493.882 343.899C487.753 343.899 483.467 348.599 483.054 355.103H504.296C504.146 348.561 500.048 343.899 493.882 343.899ZM504.146 366.796H510.575C509.447 373.639 502.83 378.677 494.295 378.677C483.091 378.677 476.286 370.894 476.286 358.6C476.286 346.456 483.204 338.222 493.995 338.222C504.56 338.222 511.064 345.892 511.064 357.735V360.216H483.016V360.592C483.016 368.074 487.415 373 494.446 373C499.409 373 503.056 370.48 504.146 366.796ZM550.166 351.719H543.774C542.834 347.471 539.525 343.974 533.773 343.974C527.005 343.974 522.418 349.576 522.418 358.449C522.418 367.548 527.081 372.924 533.848 372.924C539.187 372.924 542.684 370.104 543.812 365.405H550.241C549.226 373.188 542.684 378.677 533.811 378.677C522.982 378.677 515.764 371.044 515.764 358.449C515.764 346.117 522.945 338.222 533.735 338.222C543.511 338.222 549.338 344.688 550.166 351.719ZM558.362 329.461H564.904V338.898H572.499V344.275H564.904V367.51C564.904 371.082 566.408 372.699 569.754 372.699C570.506 372.699 572.01 372.586 572.461 372.511V378C571.671 378.188 569.867 378.301 568.325 378.301C561.144 378.301 558.362 375.368 558.362 367.849V344.275H552.534V338.898H558.362V329.461ZM594.042 343.899C587.914 343.899 583.627 348.599 583.214 355.103H604.457C604.306 348.561 600.208 343.899 594.042 343.899ZM604.306 366.796H610.735C609.607 373.639 602.99 378.677 594.456 378.677C583.251 378.677 576.446 370.894 576.446 358.6C576.446 346.456 583.364 338.222 594.155 338.222C604.72 338.222 611.224 345.892 611.224 357.735V360.216H583.176V360.592C583.176 368.074 587.575 373 594.606 373C599.569 373 603.216 370.48 604.306 366.796ZM619.947 329.461H626.489V338.898H634.083V344.275H626.489V367.51C626.489 371.082 627.993 372.699 631.339 372.699C632.091 372.699 633.595 372.586 634.046 372.511V378C633.256 378.188 631.452 378.301 629.91 378.301C622.729 378.301 619.947 375.368 619.947 367.849V344.275H614.119V338.898H619.947V329.461ZM673.185 338.898V378H666.981V371.646H666.831C664.5 376.158 660.439 378.677 654.424 378.677C645.889 378.677 640.889 373.15 640.889 364.277V338.898H647.431V363.111C647.431 369.465 650.401 372.887 656.454 372.887C662.808 372.887 666.643 368.525 666.643 361.871V338.898H673.185ZM681.682 378V338.898H687.848V345.29H687.999C689.277 340.966 692.886 338.222 697.473 338.222C698.601 338.222 699.579 338.41 700.105 338.485V344.839C699.579 344.651 698.188 344.463 696.608 344.463C691.533 344.463 688.224 348.11 688.224 353.637V378H681.682ZM734.131 373.112C740.297 373.112 745.034 368.789 745.034 363.149V359.953L734.582 360.592C729.318 360.931 726.311 363.262 726.311 366.946C726.311 370.668 729.431 373.112 734.131 373.112ZM732.665 378.677C724.882 378.677 719.656 373.977 719.656 366.946C719.656 360.254 724.807 356.043 733.83 355.517L745.034 354.877V351.606C745.034 346.832 741.876 343.974 736.462 343.974C731.424 343.974 728.266 346.343 727.438 350.178H721.122C721.573 343.41 727.363 338.222 736.612 338.222C745.786 338.222 751.576 343.185 751.576 350.967V378H745.373V371.27H745.222C742.891 375.744 737.928 378.677 732.665 378.677ZM774.699 378.677C764.735 378.677 757.968 370.706 757.968 358.449C757.968 346.192 764.698 338.222 774.548 338.222C780.15 338.222 784.662 340.966 786.993 345.252H787.144V323.747H793.686V378H787.444V371.383H787.332C784.812 375.895 780.338 378.677 774.699 378.677ZM775.939 343.974C769.021 343.974 764.66 349.614 764.66 358.449C764.66 367.322 769.021 372.924 775.939 372.924C782.669 372.924 787.181 367.209 787.181 358.449C787.181 349.727 782.669 343.974 775.939 343.974ZM802.859 378V338.898H809.401V378H802.859ZM806.13 332.319C803.912 332.319 802.07 330.477 802.07 328.258C802.07 326.002 803.912 324.198 806.13 324.198C808.386 324.198 810.229 326.002 810.229 328.258C810.229 330.477 808.386 332.319 806.13 332.319ZM837.224 338.222C847.187 338.222 853.955 346.192 853.955 358.449C853.955 370.706 847.225 378.677 837.374 378.677C831.772 378.677 827.26 375.932 824.929 371.646H824.779V391.046H818.237V338.898H824.44V345.516H824.591C826.997 341.117 831.546 338.222 837.224 338.222ZM835.945 372.924C842.901 372.924 847.262 367.322 847.262 358.449C847.262 349.614 842.901 343.974 835.945 343.974C829.253 343.974 824.741 349.764 824.741 358.449C824.741 367.172 829.253 372.924 835.945 372.924ZM860.91 378V338.898H867.452V378H860.91ZM864.181 332.319C861.963 332.319 860.121 330.477 860.121 328.258C860.121 326.002 861.963 324.198 864.181 324.198C866.437 324.198 868.279 326.002 868.279 328.258C868.279 330.477 866.437 332.319 864.181 332.319ZM875.611 349.689C875.611 342.997 881.589 338.222 890.199 338.222C898.282 338.222 904.223 343.034 904.523 349.651H898.282C897.831 345.892 894.786 343.561 889.973 343.561C885.198 343.561 882.04 345.929 882.04 349.351C882.04 352.058 884.108 353.862 888.544 354.99L894.598 356.457C902.493 358.449 905.351 361.307 905.351 367.059C905.351 373.864 898.921 378.677 889.785 378.677C881.213 378.677 875.235 374.015 874.558 367.097H881.1C881.814 371.157 884.897 373.338 890.199 373.338C895.5 373.338 898.771 371.082 898.771 367.548C898.771 364.766 897.154 363.262 892.755 362.096L885.875 360.329C878.995 358.562 875.611 355.028 875.611 349.689ZM944.64 351.719H938.249C937.309 347.471 934 343.974 928.248 343.974C921.48 343.974 916.893 349.576 916.893 358.449C916.893 367.548 921.555 372.924 928.323 372.924C933.662 372.924 937.158 370.104 938.286 365.405H944.715C943.7 373.188 937.158 378.677 928.285 378.677C917.457 378.677 910.238 371.044 910.238 358.449C910.238 346.117 917.419 338.222 928.21 338.222C937.985 338.222 943.813 344.688 944.64 351.719ZM951.069 378V338.898H957.611V378H951.069ZM954.34 332.319C952.122 332.319 950.28 330.477 950.28 328.258C950.28 326.002 952.122 324.198 954.34 324.198C956.596 324.198 958.438 326.002 958.438 328.258C958.438 330.477 956.596 332.319 954.34 332.319ZM966.447 378V338.898H972.613V345.14H972.763C974.944 340.929 979.117 338.222 985.17 338.222C993.743 338.222 998.706 343.749 998.706 352.622V378H992.164V353.787C992.164 347.471 989.193 344.012 983.178 344.012C977.012 344.012 972.989 348.373 972.989 354.99V378H966.447ZM1022.96 372.548C1029.76 372.548 1034.31 366.909 1034.31 358.299C1034.31 349.689 1029.76 343.974 1022.96 343.974C1016.23 343.974 1011.83 349.539 1011.83 358.299C1011.83 367.059 1016.23 372.548 1022.96 372.548ZM1023.18 392.738C1014.57 392.738 1007.77 387.888 1006.68 381.233H1013.41C1014.68 384.805 1018.56 387.174 1023.44 387.174C1030.21 387.174 1034.31 383.264 1034.31 377.436V371.27H1034.16C1031.75 375.519 1027.13 378.301 1021.64 378.301C1011.68 378.301 1005.13 370.443 1005.13 358.299C1005.13 346.042 1011.68 338.222 1021.79 338.222C1027.32 338.222 1031.9 340.929 1034.5 345.478H1034.61V338.898H1040.85V377.21C1040.85 386.535 1033.97 392.738 1023.18 392.738ZM1080.86 343.899C1074.73 343.899 1070.44 348.599 1070.03 355.103H1091.27C1091.12 348.561 1087.02 343.899 1080.86 343.899ZM1091.12 366.796H1097.55C1096.42 373.639 1089.8 378.677 1081.27 378.677C1070.07 378.677 1063.26 370.894 1063.26 358.6C1063.26 346.456 1070.18 338.222 1080.97 338.222C1091.53 338.222 1098.04 345.892 1098.04 357.735V360.216H1069.99V360.592C1069.99 368.074 1074.39 373 1081.42 373C1086.38 373 1090.03 370.48 1091.12 366.796ZM1104.99 378V323.747H1111.54V378H1104.99ZM1120.71 378V338.898H1127.25V378H1120.71ZM1123.98 332.319C1121.76 332.319 1119.92 330.477 1119.92 328.258C1119.92 326.002 1121.76 324.198 1123.98 324.198C1126.24 324.198 1128.08 326.002 1128.08 328.258C1128.08 330.477 1126.24 332.319 1123.98 332.319ZM1138.19 329.461H1144.73V338.898H1152.33V344.275H1144.73V367.51C1144.73 371.082 1146.24 372.699 1149.58 372.699C1150.34 372.699 1151.84 372.586 1152.29 372.511V378C1151.5 378.188 1149.7 378.301 1148.16 378.301C1140.98 378.301 1138.19 375.368 1138.19 367.849V344.275H1132.37V338.898H1138.19V329.461ZM1163.8 388.791H1158.35L1161.99 369.653H1168.95L1163.8 388.791ZM1190.23 349.689C1190.23 342.997 1196.21 338.222 1204.82 338.222C1212.9 338.222 1218.84 343.034 1219.14 349.651H1212.9C1212.45 345.892 1209.4 343.561 1204.59 343.561C1199.82 343.561 1196.66 345.929 1196.66 349.351C1196.66 352.058 1198.73 353.862 1203.16 354.99L1209.21 356.457C1217.11 358.449 1219.97 361.307 1219.97 367.059C1219.97 373.864 1213.54 378.677 1204.4 378.677C1195.83 378.677 1189.85 374.015 1189.18 367.097H1195.72C1196.43 371.157 1199.51 373.338 1204.82 373.338C1210.12 373.338 1213.39 371.082 1213.39 367.548C1213.39 364.766 1211.77 363.262 1207.37 362.096L1200.49 360.329C1193.61 358.562 1190.23 355.028 1190.23 349.689ZM1242.45 343.899C1236.32 343.899 1232.04 348.599 1231.62 355.103H1252.87C1252.72 348.561 1248.62 343.899 1242.45 343.899ZM1252.72 366.796H1259.14C1258.02 373.639 1251.4 378.677 1242.86 378.677C1231.66 378.677 1224.86 370.894 1224.86 358.6C1224.86 346.456 1231.77 338.222 1242.56 338.222C1253.13 338.222 1259.63 345.892 1259.63 357.735V360.216H1231.59V360.592C1231.59 368.074 1235.98 373 1243.02 373C1247.98 373 1251.62 370.48 1252.72 366.796ZM1281.06 378.677C1271.1 378.677 1264.33 370.706 1264.33 358.449C1264.33 346.192 1271.06 338.222 1280.91 338.222C1286.52 338.222 1291.03 340.966 1293.36 345.252H1293.51V323.747H1300.05V378H1293.81V371.383H1293.7C1291.18 375.895 1286.7 378.677 1281.06 378.677ZM1282.3 343.974C1275.39 343.974 1271.03 349.614 1271.03 358.449C1271.03 367.322 1275.39 372.924 1282.3 372.924C1289.03 372.924 1293.55 367.209 1293.55 358.449C1293.55 349.727 1289.03 343.974 1282.3 343.974ZM1339.49 378.677C1329.53 378.677 1322.76 370.706 1322.76 358.449C1322.76 346.192 1329.49 338.222 1339.34 338.222C1344.94 338.222 1349.45 340.966 1351.79 345.252H1351.94V323.747H1358.48V378H1352.24V371.383H1352.12C1349.6 375.895 1345.13 378.677 1339.49 378.677ZM1340.73 343.974C1333.81 343.974 1329.45 349.614 1329.45 358.449C1329.45 367.322 1333.81 372.924 1340.73 372.924C1347.46 372.924 1351.97 367.209 1351.97 358.449C1351.97 349.727 1347.46 343.974 1340.73 343.974ZM1383.52 378.677C1372.69 378.677 1365.4 370.894 1365.4 358.449C1365.4 345.967 1372.69 338.222 1383.52 338.222C1394.31 338.222 1401.6 345.967 1401.6 358.449C1401.6 370.894 1394.31 378.677 1383.52 378.677ZM1383.52 372.924C1390.44 372.924 1394.95 367.661 1394.95 358.449C1394.95 349.238 1390.44 343.974 1383.52 343.974C1376.6 343.974 1372.05 349.238 1372.05 358.449C1372.05 367.661 1376.6 372.924 1383.52 372.924ZM337.927 410.899C331.798 410.899 327.512 415.599 327.099 422.103H348.341C348.191 415.561 344.093 410.899 337.927 410.899ZM348.191 433.796H354.62C353.492 440.639 346.875 445.677 338.34 445.677C327.136 445.677 320.331 437.894 320.331 425.6C320.331 413.456 327.249 405.222 338.04 405.222C348.604 405.222 355.109 412.892 355.109 424.735V427.216H327.061V427.592C327.061 435.074 331.46 440 338.491 440C343.454 440 347.101 437.48 348.191 433.796ZM362.064 445V405.898H368.606V445H362.064ZM365.335 399.319C363.117 399.319 361.275 397.477 361.275 395.258C361.275 393.002 363.117 391.198 365.335 391.198C367.591 391.198 369.434 393.002 369.434 395.258C369.434 397.477 367.591 399.319 365.335 399.319ZM409.55 405.898V445H403.347V438.646H403.196C400.865 443.158 396.805 445.677 390.789 445.677C382.254 445.677 377.254 440.15 377.254 431.277V405.898H383.796V430.111C383.796 436.465 386.766 439.887 392.819 439.887C399.173 439.887 403.008 435.525 403.008 428.871V405.898H409.55ZM417.371 416.689C417.371 409.997 423.349 405.222 431.958 405.222C440.042 405.222 445.982 410.034 446.283 416.651H440.042C439.591 412.892 436.545 410.561 431.733 410.561C426.958 410.561 423.8 412.929 423.8 416.351C423.8 419.058 425.868 420.862 430.304 421.99L436.357 423.457C444.253 425.449 447.11 428.307 447.11 434.059C447.11 440.864 440.681 445.677 431.545 445.677C422.973 445.677 416.995 441.015 416.318 434.097H422.86C423.574 438.157 426.657 440.338 431.958 440.338C437.26 440.338 440.531 438.082 440.531 434.548C440.531 431.766 438.914 430.262 434.515 429.096L427.635 427.329C420.754 425.562 417.371 422.028 417.371 416.689ZM453.916 445V405.898H460.082V412.14H460.232C462.074 408.004 466.06 405.222 471.323 405.222C476.662 405.222 480.61 407.929 482.302 412.666H482.452C484.633 408.004 489.22 405.222 494.709 405.222C502.454 405.222 507.455 410.26 507.455 418.005V445H500.913V419.509C500.913 414.17 497.942 411.012 492.792 411.012C487.603 411.012 483.956 414.847 483.956 420.148V445H477.414V418.794C477.414 414.095 474.256 411.012 469.406 411.012C464.217 411.012 460.458 415.072 460.458 420.486V445H453.916ZM532.006 445.677C521.178 445.677 513.884 437.894 513.884 425.449C513.884 412.967 521.178 405.222 532.006 405.222C542.796 405.222 550.09 412.967 550.09 425.449C550.09 437.894 542.796 445.677 532.006 445.677ZM532.006 439.924C538.924 439.924 543.436 434.661 543.436 425.449C543.436 416.238 538.924 410.974 532.006 410.974C525.088 410.974 520.539 416.238 520.539 425.449C520.539 434.661 525.088 439.924 532.006 439.924ZM571.521 445.677C561.558 445.677 554.79 437.706 554.79 425.449C554.79 413.192 561.52 405.222 571.371 405.222C576.973 405.222 581.484 407.966 583.815 412.252H583.966V390.747H590.508V445H584.267V438.383H584.154C581.635 442.895 577.161 445.677 571.521 445.677ZM572.762 410.974C565.844 410.974 561.482 416.614 561.482 425.449C561.482 434.322 565.844 439.924 572.762 439.924C579.492 439.924 584.003 434.209 584.003 425.449C584.003 416.727 579.492 410.974 572.762 410.974Z" fill="#99999C"/>
<path d="M362.199 753.909V760H329.264V705.747H336.031V753.909H362.199ZM383.705 760.677C372.877 760.677 365.583 752.894 365.583 740.449C365.583 727.967 372.877 720.222 383.705 720.222C394.496 720.222 401.79 727.967 401.79 740.449C401.79 752.894 394.496 760.677 383.705 760.677ZM383.705 754.924C390.623 754.924 395.135 749.661 395.135 740.449C395.135 731.238 390.623 725.974 383.705 725.974C376.787 725.974 372.238 731.238 372.238 740.449C372.238 749.661 376.787 754.924 383.705 754.924ZM408.407 760V720.898H414.573V727.29H414.723C416.001 722.966 419.611 720.222 424.198 720.222C425.326 720.222 426.303 720.41 426.83 720.485V726.839C426.303 726.651 424.912 726.463 423.333 726.463C418.257 726.463 414.949 730.11 414.949 735.637V760H408.407ZM445.967 725.899C439.838 725.899 435.552 730.599 435.139 737.103H456.381C456.231 730.561 452.133 725.899 445.967 725.899ZM456.231 748.796H462.66C461.532 755.639 454.915 760.677 446.38 760.677C435.176 760.677 428.371 752.894 428.371 740.6C428.371 728.456 435.289 720.222 446.08 720.222C456.645 720.222 463.149 727.892 463.149 739.735V742.216H435.101V742.592C435.101 750.074 439.5 755 446.531 755C451.494 755 455.141 752.48 456.231 748.796ZM469.766 760V720.898H475.932V727.14H476.083C477.925 723.004 481.91 720.222 487.174 720.222C492.513 720.222 496.46 722.929 498.152 727.666H498.303C500.483 723.004 505.07 720.222 510.56 720.222C518.305 720.222 523.305 725.26 523.305 733.005V760H516.763V734.509C516.763 729.17 513.793 726.012 508.642 726.012C503.454 726.012 499.807 729.847 499.807 735.148V760H493.265V733.794C493.265 729.095 490.106 726.012 485.256 726.012C480.068 726.012 476.308 730.072 476.308 735.486V760H469.766ZM547.781 760V720.898H554.323V760H547.781ZM551.052 714.319C548.834 714.319 546.992 712.477 546.992 710.258C546.992 708.002 548.834 706.198 551.052 706.198C553.308 706.198 555.15 708.002 555.15 710.258C555.15 712.477 553.308 714.319 551.052 714.319ZM582.146 720.222C592.109 720.222 598.876 728.192 598.876 740.449C598.876 752.706 592.146 760.677 582.296 760.677C576.694 760.677 572.182 757.932 569.851 753.646H569.701V773.046H563.159V720.898H569.362V727.516H569.513C571.919 723.117 576.468 720.222 582.146 720.222ZM580.867 754.924C587.823 754.924 592.184 749.322 592.184 740.449C592.184 731.614 587.823 725.974 580.867 725.974C574.175 725.974 569.663 731.764 569.663 740.449C569.663 749.172 574.175 754.924 580.867 754.924ZM604.817 731.689C604.817 724.997 610.795 720.222 619.405 720.222C627.488 720.222 633.429 725.034 633.729 731.651H627.488C627.037 727.892 623.992 725.561 619.179 725.561C614.404 725.561 611.246 727.929 611.246 731.351C611.246 734.058 613.314 735.862 617.75 736.99L623.804 738.457C631.699 740.449 634.557 743.307 634.557 749.059C634.557 755.864 628.127 760.677 618.991 760.677C610.419 760.677 604.441 756.015 603.764 749.097H610.306C611.021 753.157 614.104 755.338 619.405 755.338C624.706 755.338 627.977 753.082 627.977 749.548C627.977 746.766 626.36 745.262 621.961 744.096L615.081 742.329C608.201 740.562 604.817 737.028 604.817 731.689ZM673.47 720.898V760H667.267V753.646H667.116C664.785 758.158 660.725 760.677 654.709 760.677C646.174 760.677 641.174 755.15 641.174 746.277V720.898H647.716V745.111C647.716 751.465 650.686 754.887 656.739 754.887C663.093 754.887 666.928 750.525 666.928 743.871V720.898H673.47ZM681.967 760V720.898H688.133V727.14H688.284C690.126 723.004 694.111 720.222 699.375 720.222C704.714 720.222 708.662 722.929 710.354 727.666H710.504C712.685 723.004 717.271 720.222 722.761 720.222C730.506 720.222 735.506 725.26 735.506 733.005V760H728.964V734.509C728.964 729.17 725.994 726.012 720.843 726.012C715.655 726.012 712.008 729.847 712.008 735.148V760H705.466V733.794C705.466 729.095 702.308 726.012 697.458 726.012C692.269 726.012 688.509 730.072 688.509 735.486V760H681.967ZM774.458 760.677C764.494 760.677 757.727 752.706 757.727 740.449C757.727 728.192 764.457 720.222 774.307 720.222C779.909 720.222 784.421 722.966 786.752 727.252H786.902V705.747H793.444V760H787.203V753.383H787.09C784.571 757.895 780.097 760.677 774.458 760.677ZM775.698 725.974C768.78 725.974 764.419 731.614 764.419 740.449C764.419 749.322 768.78 754.924 775.698 754.924C782.428 754.924 786.94 749.209 786.94 740.449C786.94 731.727 782.428 725.974 775.698 725.974ZM818.484 760.677C807.656 760.677 800.362 752.894 800.362 740.449C800.362 727.967 807.656 720.222 818.484 720.222C829.275 720.222 836.569 727.967 836.569 740.449C836.569 752.894 829.275 760.677 818.484 760.677ZM818.484 754.924C825.402 754.924 829.914 749.661 829.914 740.449C829.914 731.238 825.402 725.974 818.484 725.974C811.566 725.974 807.017 731.238 807.017 740.449C807.017 749.661 811.566 754.924 818.484 754.924ZM843.524 760V705.747H850.066V760H843.524ZM875.106 760.677C864.278 760.677 856.984 752.894 856.984 740.449C856.984 727.967 864.278 720.222 875.106 720.222C885.897 720.222 893.191 727.967 893.191 740.449C893.191 752.894 885.897 760.677 875.106 760.677ZM875.106 754.924C882.024 754.924 886.536 749.661 886.536 740.449C886.536 731.238 882.024 725.974 875.106 725.974C868.188 725.974 863.639 731.238 863.639 740.449C863.639 749.661 868.188 754.924 875.106 754.924ZM899.808 760V720.898H905.974V727.29H906.125C907.403 722.966 911.012 720.222 915.599 720.222C916.727 720.222 917.705 720.41 918.231 720.485V726.839C917.705 726.651 916.313 726.463 914.734 726.463C909.659 726.463 906.35 730.11 906.35 735.637V760H899.808ZM938.684 731.689C938.684 724.997 944.662 720.222 953.272 720.222C961.355 720.222 967.296 725.034 967.597 731.651H961.355C960.904 727.892 957.859 725.561 953.046 725.561C948.271 725.561 945.113 727.929 945.113 731.351C945.113 734.058 947.181 735.862 951.618 736.99L957.671 738.457C965.566 740.449 968.424 743.307 968.424 749.059C968.424 755.864 961.995 760.677 952.858 760.677C944.286 760.677 938.308 756.015 937.631 749.097H944.173C944.888 753.157 947.971 755.338 953.272 755.338C958.573 755.338 961.844 753.082 961.844 749.548C961.844 746.766 960.228 745.262 955.829 744.096L948.948 742.329C942.068 740.562 938.684 737.028 938.684 731.689ZM975.567 760V720.898H982.109V760H975.567ZM978.838 714.319C976.62 714.319 974.778 712.477 974.778 710.258C974.778 708.002 976.62 706.198 978.838 706.198C981.094 706.198 982.937 708.002 982.937 710.258C982.937 712.477 981.094 714.319 978.838 714.319ZM993.05 711.461H999.592V720.898H1007.19V726.275H999.592V749.51C999.592 753.082 1001.1 754.699 1004.44 754.699C1005.19 754.699 1006.7 754.586 1007.15 754.511V760C1006.36 760.188 1004.56 760.301 1003.01 760.301C995.833 760.301 993.05 757.368 993.05 749.849V726.275H987.223V720.898H993.05V711.461ZM1042.87 755.112C1049.03 755.112 1053.77 750.789 1053.77 745.149V741.953L1043.32 742.592C1038.05 742.931 1035.05 745.262 1035.05 748.946C1035.05 752.668 1038.17 755.112 1042.87 755.112ZM1041.4 760.677C1033.62 760.677 1028.39 755.977 1028.39 748.946C1028.39 742.254 1033.54 738.043 1042.57 737.517L1053.77 736.877V733.606C1053.77 728.832 1050.61 725.974 1045.2 725.974C1040.16 725.974 1037 728.343 1036.17 732.178H1029.86C1030.31 725.41 1036.1 720.222 1045.35 720.222C1054.52 720.222 1060.31 725.185 1060.31 732.967V760H1054.11V753.27H1053.96C1051.63 757.744 1046.66 760.677 1041.4 760.677ZM1068.62 760V720.898H1074.79V727.14H1074.94C1076.78 723.004 1080.77 720.222 1086.03 720.222C1091.37 720.222 1095.32 722.929 1097.01 727.666H1097.16C1099.34 723.004 1103.93 720.222 1109.42 720.222C1117.16 720.222 1122.16 725.26 1122.16 733.005V760H1115.62V734.509C1115.62 729.17 1112.65 726.012 1107.5 726.012C1102.31 726.012 1098.66 729.847 1098.66 735.148V760H1092.12V733.794C1092.12 729.095 1088.96 726.012 1084.11 726.012C1078.92 726.012 1075.16 730.072 1075.16 735.486V760H1068.62ZM1146.19 725.899C1140.06 725.899 1135.77 730.599 1135.36 737.103H1156.6C1156.45 730.561 1152.35 725.899 1146.19 725.899ZM1156.45 748.796H1162.88C1161.75 755.639 1155.13 760.677 1146.6 760.677C1135.4 760.677 1128.59 752.894 1128.59 740.6C1128.59 728.456 1135.51 720.222 1146.3 720.222C1156.86 720.222 1163.37 727.892 1163.37 739.735V742.216H1135.32V742.592C1135.32 750.074 1139.72 755 1146.75 755C1151.71 755 1155.36 752.48 1156.45 748.796ZM1172.09 711.461H1178.63V720.898H1186.23V726.275H1178.63V749.51C1178.63 753.082 1180.14 754.699 1183.48 754.699C1184.23 754.699 1185.74 754.586 1186.19 754.511V760C1185.4 760.188 1183.6 760.301 1182.05 760.301C1174.87 760.301 1172.09 757.368 1172.09 749.849V726.275H1166.26V720.898H1172.09V711.461ZM1197.69 770.791H1192.24L1195.89 751.653H1202.85L1197.69 770.791ZM360.733 800.719H354.341C353.401 796.471 350.093 792.974 344.34 792.974C337.573 792.974 332.986 798.576 332.986 807.449C332.986 816.548 337.648 821.924 344.416 821.924C349.754 821.924 353.251 819.104 354.379 814.405H360.808C359.793 822.188 353.251 827.677 344.378 827.677C333.55 827.677 326.331 820.044 326.331 807.449C326.331 795.117 333.512 787.222 344.303 787.222C354.078 787.222 359.906 793.688 360.733 800.719ZM383.028 827.677C372.2 827.677 364.906 819.894 364.906 807.449C364.906 794.967 372.2 787.222 383.028 787.222C393.819 787.222 401.113 794.967 401.113 807.449C401.113 819.894 393.819 827.677 383.028 827.677ZM383.028 821.924C389.946 821.924 394.458 816.661 394.458 807.449C394.458 798.238 389.946 792.974 383.028 792.974C376.11 792.974 371.561 798.238 371.561 807.449C371.561 816.661 376.11 821.924 383.028 821.924ZM407.73 827V787.898H413.896V794.14H414.046C416.227 789.929 420.4 787.222 426.454 787.222C435.026 787.222 439.989 792.749 439.989 801.622V827H433.447V802.787C433.447 796.471 430.477 793.012 424.461 793.012C418.295 793.012 414.272 797.373 414.272 803.99V827H407.73ZM447.659 798.689C447.659 791.997 453.637 787.222 462.247 787.222C470.33 787.222 476.271 792.034 476.571 798.651H470.33C469.879 794.892 466.833 792.561 462.021 792.561C457.246 792.561 454.088 794.929 454.088 798.351C454.088 801.058 456.156 802.862 460.592 803.99L466.646 805.457C474.541 807.449 477.398 810.307 477.398 816.059C477.398 822.864 470.969 827.677 461.833 827.677C453.261 827.677 447.283 823.015 446.606 816.097H453.148C453.862 820.157 456.945 822.338 462.247 822.338C467.548 822.338 470.819 820.082 470.819 816.548C470.819 813.766 469.202 812.262 464.803 811.096L457.923 809.329C451.042 807.562 447.659 804.028 447.659 798.689ZM499.882 792.899C493.753 792.899 489.467 797.599 489.054 804.103H510.296C510.146 797.561 506.048 792.899 499.882 792.899ZM510.146 815.796H516.575C515.447 822.639 508.83 827.677 500.295 827.677C489.091 827.677 482.286 819.894 482.286 807.6C482.286 795.456 489.204 787.222 499.995 787.222C510.56 787.222 517.064 794.892 517.064 806.735V809.216H489.016V809.592C489.016 817.074 493.415 822 500.446 822C505.409 822 509.056 819.48 510.146 815.796ZM556.166 800.719H549.774C548.834 796.471 545.525 792.974 539.773 792.974C533.005 792.974 528.418 798.576 528.418 807.449C528.418 816.548 533.081 821.924 539.848 821.924C545.187 821.924 548.684 819.104 549.812 814.405H556.241C555.226 822.188 548.684 827.677 539.811 827.677C528.982 827.677 521.764 820.044 521.764 807.449C521.764 795.117 528.945 787.222 539.735 787.222C549.511 787.222 555.338 793.688 556.166 800.719ZM564.362 778.461H570.904V787.898H578.499V793.275H570.904V816.51C570.904 820.082 572.408 821.699 575.754 821.699C576.506 821.699 578.01 821.586 578.461 821.511V827C577.671 827.188 575.867 827.301 574.325 827.301C567.144 827.301 564.362 824.368 564.362 816.849V793.275H558.534V787.898H564.362V778.461ZM600.042 792.899C593.914 792.899 589.627 797.599 589.214 804.103H610.457C610.306 797.561 606.208 792.899 600.042 792.899ZM610.306 815.796H616.735C615.607 822.639 608.99 827.677 600.456 827.677C589.251 827.677 582.446 819.894 582.446 807.6C582.446 795.456 589.364 787.222 600.155 787.222C610.72 787.222 617.224 794.892 617.224 806.735V809.216H589.176V809.592C589.176 817.074 593.575 822 600.606 822C605.569 822 609.216 819.48 610.306 815.796ZM625.947 778.461H632.489V787.898H640.083V793.275H632.489V816.51C632.489 820.082 633.993 821.699 637.339 821.699C638.091 821.699 639.595 821.586 640.046 821.511V827C639.256 827.188 637.452 827.301 635.91 827.301C628.729 827.301 625.947 824.368 625.947 816.849V793.275H620.119V787.898H625.947V778.461ZM679.185 787.898V827H672.981V820.646H672.831C670.5 825.158 666.439 827.677 660.424 827.677C651.889 827.677 646.889 822.15 646.889 813.277V787.898H653.431V812.111C653.431 818.465 656.401 821.887 662.454 821.887C668.808 821.887 672.643 817.525 672.643 810.871V787.898H679.185ZM687.682 827V787.898H693.848V794.29H693.999C695.277 789.966 698.886 787.222 703.473 787.222C704.601 787.222 705.579 787.41 706.105 787.485V793.839C705.579 793.651 704.188 793.463 702.608 793.463C697.533 793.463 694.224 797.11 694.224 802.637V827H687.682ZM740.131 822.112C746.297 822.112 751.034 817.789 751.034 812.149V808.953L740.582 809.592C735.318 809.931 732.311 812.262 732.311 815.946C732.311 819.668 735.431 822.112 740.131 822.112ZM738.665 827.677C730.882 827.677 725.656 822.977 725.656 815.946C725.656 809.254 730.807 805.043 739.83 804.517L751.034 803.877V800.606C751.034 795.832 747.876 792.974 742.462 792.974C737.424 792.974 734.266 795.343 733.438 799.178H727.122C727.573 792.41 733.363 787.222 742.612 787.222C751.786 787.222 757.576 792.185 757.576 799.967V827H751.373V820.27H751.222C748.891 824.744 743.928 827.677 738.665 827.677ZM780.699 827.677C770.735 827.677 763.968 819.706 763.968 807.449C763.968 795.192 770.698 787.222 780.548 787.222C786.15 787.222 790.662 789.966 792.993 794.252H793.144V772.747H799.686V827H793.444V820.383H793.332C790.812 824.895 786.338 827.677 780.699 827.677ZM781.939 792.974C775.021 792.974 770.66 798.614 770.66 807.449C770.66 816.322 775.021 821.924 781.939 821.924C788.669 821.924 793.181 816.209 793.181 807.449C793.181 798.727 788.669 792.974 781.939 792.974ZM808.859 827V787.898H815.401V827H808.859ZM812.13 781.319C809.912 781.319 808.07 779.477 808.07 777.258C808.07 775.002 809.912 773.198 812.13 773.198C814.386 773.198 816.229 775.002 816.229 777.258C816.229 779.477 814.386 781.319 812.13 781.319ZM843.224 787.222C853.187 787.222 859.955 795.192 859.955 807.449C859.955 819.706 853.225 827.677 843.374 827.677C837.772 827.677 833.26 824.932 830.929 820.646H830.779V840.046H824.237V787.898H830.44V794.516H830.591C832.997 790.117 837.546 787.222 843.224 787.222ZM841.945 821.924C848.901 821.924 853.262 816.322 853.262 807.449C853.262 798.614 848.901 792.974 841.945 792.974C835.253 792.974 830.741 798.764 830.741 807.449C830.741 816.172 835.253 821.924 841.945 821.924ZM866.91 827V787.898H873.452V827H866.91ZM870.181 781.319C867.963 781.319 866.121 779.477 866.121 777.258C866.121 775.002 867.963 773.198 870.181 773.198C872.437 773.198 874.279 775.002 874.279 777.258C874.279 779.477 872.437 781.319 870.181 781.319ZM881.611 798.689C881.611 791.997 887.589 787.222 896.199 787.222C904.282 787.222 910.223 792.034 910.523 798.651H904.282C903.831 794.892 900.786 792.561 895.973 792.561C891.198 792.561 888.04 794.929 888.04 798.351C888.04 801.058 890.108 802.862 894.544 803.99L900.598 805.457C908.493 807.449 911.351 810.307 911.351 816.059C911.351 822.864 904.921 827.677 895.785 827.677C887.213 827.677 881.235 823.015 880.558 816.097H887.1C887.814 820.157 890.897 822.338 896.199 822.338C901.5 822.338 904.771 820.082 904.771 816.548C904.771 813.766 903.154 812.262 898.755 811.096L891.875 809.329C884.995 807.562 881.611 804.028 881.611 798.689ZM950.64 800.719H944.249C943.309 796.471 940 792.974 934.248 792.974C927.48 792.974 922.893 798.576 922.893 807.449C922.893 816.548 927.555 821.924 934.323 821.924C939.662 821.924 943.158 819.104 944.286 814.405H950.715C949.7 822.188 943.158 827.677 934.285 827.677C923.457 827.677 916.238 820.044 916.238 807.449C916.238 795.117 923.419 787.222 934.21 787.222C943.985 787.222 949.813 793.688 950.64 800.719ZM957.069 827V787.898H963.611V827H957.069ZM960.34 781.319C958.122 781.319 956.28 779.477 956.28 777.258C956.28 775.002 958.122 773.198 960.34 773.198C962.596 773.198 964.438 775.002 964.438 777.258C964.438 779.477 962.596 781.319 960.34 781.319ZM972.447 827V787.898H978.613V794.14H978.763C980.944 789.929 985.117 787.222 991.17 787.222C999.743 787.222 1004.71 792.749 1004.71 801.622V827H998.164V802.787C998.164 796.471 995.193 793.012 989.178 793.012C983.012 793.012 978.989 797.373 978.989 803.99V827H972.447ZM1028.96 821.548C1035.76 821.548 1040.31 815.909 1040.31 807.299C1040.31 798.689 1035.76 792.974 1028.96 792.974C1022.23 792.974 1017.83 798.539 1017.83 807.299C1017.83 816.059 1022.23 821.548 1028.96 821.548ZM1029.18 841.738C1020.57 841.738 1013.77 836.888 1012.68 830.233H1019.41C1020.68 833.805 1024.56 836.174 1029.44 836.174C1036.21 836.174 1040.31 832.264 1040.31 826.436V820.27H1040.16C1037.75 824.519 1033.13 827.301 1027.64 827.301C1017.68 827.301 1011.13 819.443 1011.13 807.299C1011.13 795.042 1017.68 787.222 1027.79 787.222C1033.32 787.222 1037.9 789.929 1040.5 794.478H1040.61V787.898H1046.85V826.21C1046.85 835.535 1039.97 841.738 1029.18 841.738ZM343.927 859.899C337.798 859.899 333.512 864.599 333.099 871.103H354.341C354.191 864.561 350.093 859.899 343.927 859.899ZM354.191 882.796H360.62C359.492 889.639 352.875 894.677 344.34 894.677C333.136 894.677 326.331 886.894 326.331 874.6C326.331 862.456 333.249 854.222 344.04 854.222C354.604 854.222 361.109 861.892 361.109 873.735V876.216H333.061V876.592C333.061 884.074 337.46 889 344.491 889C349.454 889 353.101 886.48 354.191 882.796ZM368.064 894V839.747H374.606V894H368.064ZM383.78 894V854.898H390.322V894H383.78ZM387.051 848.319C384.833 848.319 382.991 846.477 382.991 844.258C382.991 842.002 384.833 840.198 387.051 840.198C389.307 840.198 391.149 842.002 391.149 844.258C391.149 846.477 389.307 848.319 387.051 848.319ZM401.263 845.461H407.805V854.898H415.4V860.275H407.805V883.51C407.805 887.082 409.309 888.699 412.655 888.699C413.407 888.699 414.911 888.586 415.362 888.511V894C414.573 894.188 412.768 894.301 411.227 894.301C404.045 894.301 401.263 891.368 401.263 883.849V860.275H395.436V854.898H401.263V845.461ZM426.867 904.791H421.416L425.062 885.653H432.018L426.867 904.791ZM453.298 865.689C453.298 858.997 459.276 854.222 467.886 854.222C475.97 854.222 481.91 859.034 482.211 865.651H475.97C475.519 861.892 472.473 859.561 467.661 859.561C462.886 859.561 459.728 861.929 459.728 865.351C459.728 868.058 461.795 869.862 466.232 870.99L472.285 872.457C480.181 874.449 483.038 877.307 483.038 883.059C483.038 889.864 476.609 894.677 467.473 894.677C458.9 894.677 452.922 890.015 452.246 883.097H458.788C459.502 887.157 462.585 889.338 467.886 889.338C473.188 889.338 476.458 887.082 476.458 883.548C476.458 880.766 474.842 879.262 470.443 878.096L463.562 876.329C456.682 874.562 453.298 871.028 453.298 865.689ZM505.521 859.899C499.393 859.899 495.107 864.599 494.693 871.103H515.936C515.786 864.561 511.688 859.899 505.521 859.899ZM515.786 882.796H522.215C521.087 889.639 514.47 894.677 505.935 894.677C494.731 894.677 487.926 886.894 487.926 874.6C487.926 862.456 494.844 854.222 505.634 854.222C516.199 854.222 522.704 861.892 522.704 873.735V876.216H494.656V876.592C494.656 884.074 499.055 889 506.085 889C511.048 889 514.695 886.48 515.786 882.796ZM544.134 894.677C534.171 894.677 527.403 886.706 527.403 874.449C527.403 862.192 534.133 854.222 543.984 854.222C549.586 854.222 554.098 856.966 556.429 861.252H556.579V839.747H563.121V894H556.88V887.383H556.767C554.248 891.895 549.774 894.677 544.134 894.677ZM545.375 859.974C538.457 859.974 534.096 865.614 534.096 874.449C534.096 883.322 538.457 888.924 545.375 888.924C552.105 888.924 556.617 883.209 556.617 874.449C556.617 865.727 552.105 859.974 545.375 859.974ZM602.561 894.677C592.598 894.677 585.83 886.706 585.83 874.449C585.83 862.192 592.56 854.222 602.411 854.222C608.013 854.222 612.524 856.966 614.855 861.252H615.006V839.747H621.548V894H615.307V887.383H615.194C612.675 891.895 608.201 894.677 602.561 894.677ZM603.802 859.974C596.884 859.974 592.522 865.614 592.522 874.449C592.522 883.322 596.884 888.924 603.802 888.924C610.532 888.924 615.043 883.209 615.043 874.449C615.043 865.727 610.532 859.974 603.802 859.974ZM646.588 894.677C635.76 894.677 628.466 886.894 628.466 874.449C628.466 861.967 635.76 854.222 646.588 854.222C657.378 854.222 664.672 861.967 664.672 874.449C664.672 886.894 657.378 894.677 646.588 894.677ZM646.588 888.924C653.506 888.924 658.018 883.661 658.018 874.449C658.018 865.238 653.506 859.974 646.588 859.974C639.67 859.974 635.121 865.238 635.121 874.449C635.121 883.661 639.67 888.924 646.588 888.924ZM702.759 859.899C696.63 859.899 692.344 864.599 691.931 871.103H713.173C713.023 864.561 708.925 859.899 702.759 859.899ZM713.023 882.796H719.452C718.324 889.639 711.707 894.677 703.172 894.677C691.968 894.677 685.163 886.894 685.163 874.6C685.163 862.456 692.081 854.222 702.872 854.222C713.437 854.222 719.941 861.892 719.941 873.735V876.216H691.893V876.592C691.893 884.074 696.292 889 703.323 889C708.286 889 711.933 886.48 713.023 882.796ZM726.896 894V854.898H733.438V894H726.896ZM730.167 848.319C727.949 848.319 726.107 846.477 726.107 844.258C726.107 842.002 727.949 840.198 730.167 840.198C732.423 840.198 734.266 842.002 734.266 844.258C734.266 846.477 732.423 848.319 730.167 848.319ZM774.382 854.898V894H768.179V887.646H768.028C765.697 892.158 761.637 894.677 755.621 894.677C747.086 894.677 742.086 889.15 742.086 880.277V854.898H748.628V879.111C748.628 885.465 751.598 888.887 757.651 888.887C764.005 888.887 767.84 884.525 767.84 877.871V854.898H774.382ZM782.203 865.689C782.203 858.997 788.181 854.222 796.791 854.222C804.874 854.222 810.814 859.034 811.115 865.651H804.874C804.423 861.892 801.377 859.561 796.565 859.561C791.79 859.561 788.632 861.929 788.632 865.351C788.632 868.058 790.7 869.862 795.136 870.99L801.189 872.457C809.085 874.449 811.942 877.307 811.942 883.059C811.942 889.864 805.513 894.677 796.377 894.677C787.805 894.677 781.827 890.015 781.15 883.097H787.692C788.406 887.157 791.489 889.338 796.791 889.338C802.092 889.338 805.363 887.082 805.363 883.548C805.363 880.766 803.746 879.262 799.347 878.096L792.467 876.329C785.586 874.562 782.203 871.028 782.203 865.689ZM818.748 894V854.898H824.914V861.14H825.064C826.906 857.004 830.892 854.222 836.155 854.222C841.494 854.222 845.442 856.929 847.134 861.666H847.284C849.465 857.004 854.052 854.222 859.541 854.222C867.286 854.222 872.287 859.26 872.287 867.005V894H865.745V868.509C865.745 863.17 862.774 860.012 857.624 860.012C852.435 860.012 848.788 863.847 848.788 869.148V894H842.246V867.794C842.246 863.095 839.088 860.012 834.238 860.012C829.049 860.012 825.29 864.072 825.29 869.486V894H818.748ZM896.838 894.677C886.01 894.677 878.716 886.894 878.716 874.449C878.716 861.967 886.01 854.222 896.838 854.222C907.628 854.222 914.922 861.967 914.922 874.449C914.922 886.894 907.628 894.677 896.838 894.677ZM896.838 888.924C903.756 888.924 908.268 883.661 908.268 874.449C908.268 865.238 903.756 859.974 896.838 859.974C889.92 859.974 885.371 865.238 885.371 874.449C885.371 883.661 889.92 888.924 896.838 888.924ZM936.353 894.677C926.39 894.677 919.622 886.706 919.622 874.449C919.622 862.192 926.352 854.222 936.203 854.222C941.805 854.222 946.316 856.966 948.647 861.252H948.798V839.747H955.34V894H949.099V887.383H948.986C946.467 891.895 941.993 894.677 936.353 894.677ZM937.594 859.974C930.676 859.974 926.314 865.614 926.314 874.449C926.314 883.322 930.676 888.924 937.594 888.924C944.324 888.924 948.835 883.209 948.835 874.449C948.835 865.727 944.324 859.974 937.594 859.974Z" fill="#99999C"/>
<rect x="315.5" y="250.5" width="1088" height="202" stroke="#007AFF"/>
<rect x="312.5" y="246.5" width="7" height="7" fill="white" stroke="#007AFF"/>
<rect x="1400.5" y="246.5" width="7" height="7" fill="white" stroke="#007AFF"/>
<path d="M312.5 449.5H319.5V456.5H312.5V449.5Z" fill="white" stroke="#007AFF"/>
<rect x="1400.5" y="449.5" width="7" height="7" fill="white" stroke="#007AFF"/>
<rect x="319.5" y="699.5" width="1088" height="202" stroke="#007AFF"/>
<rect x="316.5" y="695.5" width="7" height="7" fill="white" stroke="#007AFF"/>
<rect x="1404.5" y="695.5" width="7" height="7" fill="white" stroke="#007AFF"/>
<path d="M316.5 898.5H323.5V905.5H316.5V898.5Z" fill="white" stroke="#007AFF"/>
<rect x="1404.5" y="898.5" width="7" height="7" fill="white" stroke="#007AFF"/>
<rect x="805" y="465" width="110" height="43" rx="21.5" fill="#007AFF"/>
<path d="M821.617 492V482.891H821.57L818.695 484.875V482.75L821.609 480.727H823.953V492H821.617ZM830.898 492.25C828.062 492.25 826.336 489.992 826.336 486.344C826.336 482.703 828.078 480.469 830.898 480.469C833.719 480.469 835.453 482.695 835.453 486.336C835.453 489.977 833.734 492.25 830.898 492.25ZM830.898 490.359C832.242 490.359 833.055 488.914 833.055 486.344C833.055 483.797 832.234 482.359 830.898 482.359C829.57 482.359 828.734 483.805 828.734 486.344C828.734 488.906 829.555 490.359 830.898 490.359ZM841.039 492.25C838.883 492.25 837.188 490.969 836.875 489.125H839.203C839.43 489.883 840.172 490.383 841.078 490.383C842.633 490.383 843.578 488.906 843.516 486.32C843.508 486.32 843.492 486.32 843.492 486.32H843.477H843.469C843.062 487.422 841.953 488.164 840.469 488.164C838.344 488.164 836.727 486.586 836.727 484.445C836.727 482.125 838.555 480.469 841.07 480.469C842.695 480.469 844.047 481.195 844.828 482.531C845.453 483.492 845.773 484.758 845.773 486.266C845.773 490 844.008 492.25 841.039 492.25ZM841.086 486.391C842.258 486.391 843.148 485.531 843.148 484.391C843.148 483.242 842.25 482.352 841.102 482.352C839.945 482.352 839.031 483.242 839.031 484.375C839.031 485.531 839.914 486.391 841.086 486.391ZM851.781 492.258C850.164 492.258 848.828 491.523 848.039 490.18C847.414 489.227 847.094 487.953 847.094 486.453C847.094 482.719 848.906 480.469 851.82 480.469C853.969 480.469 855.648 481.742 855.961 483.586H853.641C853.414 482.836 852.688 482.336 851.805 482.336C850.234 482.336 849.281 483.844 849.336 486.391H849.383C849.836 485.289 850.945 484.555 852.383 484.555C854.523 484.555 856.109 486.133 856.109 488.273C856.109 490.594 854.305 492.258 851.781 492.258ZM851.758 490.375C852.906 490.375 853.812 489.477 853.812 488.344C853.812 487.18 852.945 486.328 851.766 486.328C850.594 486.328 849.703 487.18 849.703 488.32C849.703 489.469 850.602 490.375 851.758 490.375ZM864.094 489.094H864.047L862.477 492H860.078L862.703 487.828L860.094 483.625H862.664L864.172 486.453H864.219L865.703 483.625H868.188L865.57 487.766L868.164 492H865.688L864.094 489.094ZM872.195 484.117C872.195 481.984 873.898 480.477 876.359 480.477C878.734 480.477 880.367 481.852 880.367 483.734C880.367 485.141 879.43 486.195 878.188 487.43L875.438 490.078V490.125H880.523V492H872.328V490.414L876.578 486.32C877.719 485.18 878.07 484.609 878.07 483.828C878.07 482.984 877.328 482.312 876.281 482.312C875.188 482.312 874.383 483.078 874.383 484.117V484.156H872.195V484.117ZM886.352 492.25C883.516 492.25 881.789 489.992 881.789 486.344C881.789 482.703 883.531 480.469 886.352 480.469C889.172 480.469 890.906 482.695 890.906 486.336C890.906 489.977 889.188 492.25 886.352 492.25ZM886.352 490.359C887.695 490.359 888.508 488.914 888.508 486.344C888.508 483.797 887.688 482.359 886.352 482.359C885.023 482.359 884.188 483.805 884.188 486.344C884.188 488.906 885.008 490.359 886.352 490.359ZM896.773 492.25C893.938 492.25 892.211 489.992 892.211 486.344C892.211 482.703 893.953 480.469 896.773 480.469C899.594 480.469 901.328 482.695 901.328 486.336C901.328 489.977 899.609 492.25 896.773 492.25ZM896.773 490.359C898.117 490.359 898.93 488.914 898.93 486.344C898.93 483.797 898.109 482.359 896.773 482.359C895.445 482.359 894.609 483.805 894.609 486.344C894.609 488.906 895.43 490.359 896.773 490.359Z" fill="white"/>
<rect x="805" y="918" width="110" height="43" rx="21.5" fill="#007AFF"/>
<path d="M821.617 945V935.891H821.57L818.695 937.875V935.75L821.609 933.727H823.953V945H821.617ZM830.898 945.25C828.062 945.25 826.336 942.992 826.336 939.344C826.336 935.703 828.078 933.469 830.898 933.469C833.719 933.469 835.453 935.695 835.453 939.336C835.453 942.977 833.734 945.25 830.898 945.25ZM830.898 943.359C832.242 943.359 833.055 941.914 833.055 939.344C833.055 936.797 832.234 935.359 830.898 935.359C829.57 935.359 828.734 936.805 828.734 939.344C828.734 941.906 829.555 943.359 830.898 943.359ZM841.039 945.25C838.883 945.25 837.188 943.969 836.875 942.125H839.203C839.43 942.883 840.172 943.383 841.078 943.383C842.633 943.383 843.578 941.906 843.516 939.32C843.508 939.32 843.492 939.32 843.492 939.32H843.477H843.469C843.062 940.422 841.953 941.164 840.469 941.164C838.344 941.164 836.727 939.586 836.727 937.445C836.727 935.125 838.555 933.469 841.07 933.469C842.695 933.469 844.047 934.195 844.828 935.531C845.453 936.492 845.773 937.758 845.773 939.266C845.773 943 844.008 945.25 841.039 945.25ZM841.086 939.391C842.258 939.391 843.148 938.531 843.148 937.391C843.148 936.242 842.25 935.352 841.102 935.352C839.945 935.352 839.031 936.242 839.031 937.375C839.031 938.531 839.914 939.391 841.086 939.391ZM851.781 945.258C850.164 945.258 848.828 944.523 848.039 943.18C847.414 942.227 847.094 940.953 847.094 939.453C847.094 935.719 848.906 933.469 851.82 933.469C853.969 933.469 855.648 934.742 855.961 936.586H853.641C853.414 935.836 852.688 935.336 851.805 935.336C850.234 935.336 849.281 936.844 849.336 939.391H849.383C849.836 938.289 850.945 937.555 852.383 937.555C854.523 937.555 856.109 939.133 856.109 941.273C856.109 943.594 854.305 945.258 851.781 945.258ZM851.758 943.375C852.906 943.375 853.812 942.477 853.812 941.344C853.812 940.18 852.945 939.328 851.766 939.328C850.594 939.328 849.703 940.18 849.703 941.32C849.703 942.469 850.602 943.375 851.758 943.375ZM864.094 942.094H864.047L862.477 945H860.078L862.703 940.828L860.094 936.625H862.664L864.172 939.453H864.219L865.703 936.625H868.188L865.57 940.766L868.164 945H865.688L864.094 942.094ZM872.195 937.117C872.195 934.984 873.898 933.477 876.359 933.477C878.734 933.477 880.367 934.852 880.367 936.734C880.367 938.141 879.43 939.195 878.188 940.43L875.438 943.078V943.125H880.523V945H872.328V943.414L876.578 939.32C877.719 938.18 878.07 937.609 878.07 936.828C878.07 935.984 877.328 935.312 876.281 935.312C875.188 935.312 874.383 936.078 874.383 937.117V937.156H872.195V937.117ZM886.352 945.25C883.516 945.25 881.789 942.992 881.789 939.344C881.789 935.703 883.531 933.469 886.352 933.469C889.172 933.469 890.906 935.695 890.906 939.336C890.906 942.977 889.188 945.25 886.352 945.25ZM886.352 943.359C887.695 943.359 888.508 941.914 888.508 939.344C888.508 936.797 887.688 935.359 886.352 935.359C885.023 935.359 884.188 936.805 884.188 939.344C884.188 941.906 885.008 943.359 886.352 943.359ZM896.773 945.25C893.938 945.25 892.211 942.992 892.211 939.344C892.211 935.703 893.953 933.469 896.773 933.469C899.594 933.469 901.328 935.695 901.328 939.336C901.328 942.977 899.609 945.25 896.773 945.25ZM896.773 943.359C898.117 943.359 898.93 941.914 898.93 939.344C898.93 936.797 898.109 935.359 896.773 935.359C895.445 935.359 894.609 936.805 894.609 939.344C894.609 941.906 895.43 943.359 896.773 943.359Z" fill="white"/>
<path d="M335.866 151.747V185.697C335.866 192.653 339.964 197.202 347.258 197.202C354.515 197.202 358.613 192.653 358.613 185.697V151.747H369.967V186.825C369.967 198.781 361.132 206.94 347.258 206.94C333.347 206.94 324.512 198.781 324.512 186.825V151.747H335.866ZM378.088 206V165.695H388.691V172.876H388.917C391.06 167.876 395.308 164.943 401.512 164.943C410.46 164.943 415.498 170.583 415.498 180.02V206H404.52V182.313C404.52 177.05 402.038 174.042 397.113 174.042C392.188 174.042 389.067 177.651 389.067 182.877V206H378.088ZM446.403 206.639C440.5 206.639 435.989 203.782 433.771 199.082H433.545V206H422.717V151.747H433.695V172.688H433.921C436.139 167.914 440.613 165.056 446.366 165.056C456.517 165.056 462.758 172.839 462.758 185.848C462.758 198.819 456.555 206.639 446.403 206.639ZM442.606 173.854C437.305 173.854 433.658 178.629 433.658 185.848C433.658 193.142 437.267 197.804 442.606 197.804C448.095 197.804 451.517 193.217 451.517 185.848C451.517 178.516 448.058 173.854 442.606 173.854ZM484.039 198.706C488.813 198.706 492.761 195.585 492.761 191.224V188.292L484.264 188.818C480.166 189.119 477.835 190.961 477.835 193.818C477.835 196.826 480.316 198.706 484.039 198.706ZM480.429 206.639C472.759 206.639 466.932 201.676 466.932 194.42C466.932 187.088 472.571 182.84 482.61 182.238L492.761 181.637V178.967C492.761 175.208 490.129 173.027 485.994 173.027C481.896 173.027 479.301 175.057 478.775 178.027H468.736C469.15 170.207 475.805 164.831 486.482 164.831C496.822 164.831 503.552 170.169 503.552 178.291V206H492.949V199.834H492.724C490.468 204.12 485.467 206.639 480.429 206.639ZM510.921 206V151.747H521.899V206H510.921ZM544.872 198.706C549.646 198.706 553.594 195.585 553.594 191.224V188.292L545.097 188.818C540.999 189.119 538.668 190.961 538.668 193.818C538.668 196.826 541.149 198.706 544.872 198.706ZM541.262 206.639C533.592 206.639 527.765 201.676 527.765 194.42C527.765 187.088 533.404 182.84 543.443 182.238L553.594 181.637V178.967C553.594 175.208 550.962 173.027 546.827 173.027C542.729 173.027 540.134 175.057 539.608 178.027H529.569C529.983 170.207 536.638 164.831 547.315 164.831C557.655 164.831 564.385 170.169 564.385 178.291V206H553.782V199.834H553.557C551.301 204.12 546.3 206.639 541.262 206.639ZM571.491 206V165.695H582.093V172.876H582.319C584.462 167.876 588.71 164.943 594.914 164.943C603.862 164.943 608.9 170.583 608.9 180.02V206H597.922V182.313C597.922 177.05 595.44 174.042 590.515 174.042C585.59 174.042 582.469 177.651 582.469 182.877V206H571.491ZM652.476 180.697H642.287C641.648 176.448 638.828 173.44 634.316 173.44C628.902 173.44 625.519 178.027 625.519 185.81C625.519 193.743 628.902 198.255 634.354 198.255C638.753 198.255 641.61 195.623 642.287 191.224H652.514C651.95 200.736 644.844 206.865 634.241 206.865C622.097 206.865 614.39 198.969 614.39 185.81C614.39 172.876 622.097 164.831 634.166 164.831C645.069 164.831 651.987 171.561 652.476 180.697ZM675.899 172.952C671.087 172.952 667.628 176.599 667.252 181.637H684.359C684.133 176.486 680.787 172.952 675.899 172.952ZM684.509 193.668H694.585C693.382 201.563 686.164 206.865 676.2 206.865C663.793 206.865 656.349 198.932 656.349 186.036C656.349 173.177 663.868 164.831 675.787 164.831C687.517 164.831 694.924 172.764 694.924 185.021V188.367H667.139V189.043C667.139 194.796 670.786 198.744 676.388 198.744C680.411 198.744 683.494 196.751 684.509 193.668ZM715.565 206.639C705.489 206.639 699.135 198.668 699.135 185.772C699.135 172.989 705.526 165.056 715.64 165.056C721.468 165.056 725.979 168.139 727.935 172.613H728.16V151.747H739.139V206H728.311V199.082H728.123C726.167 203.519 721.505 206.639 715.565 206.639ZM719.287 173.854C713.76 173.854 710.376 178.479 710.376 185.848C710.376 193.254 713.76 197.804 719.287 197.804C724.739 197.804 728.235 193.217 728.235 185.848C728.235 178.516 724.739 173.854 719.287 173.854Z" fill="black"/>
<path d="M348.537 659H324.512V604.747H348.123C358.312 604.747 364.704 609.973 364.704 618.282C364.704 624.222 360.267 629.185 354.515 630.05V630.351C361.884 630.915 367.298 636.291 367.298 643.472C367.298 653.022 360.117 659 348.537 659ZM335.866 613.206V627.305H344.025C350.078 627.305 353.537 624.636 353.537 620.049C353.537 615.688 350.492 613.206 345.19 613.206H335.866ZM335.866 650.541H345.642C352.184 650.541 355.718 647.758 355.718 642.57C355.718 637.494 352.071 634.787 345.378 634.787H335.866V650.541ZM388.39 651.706C393.165 651.706 397.113 648.585 397.113 644.224V641.292L388.616 641.818C384.518 642.119 382.187 643.961 382.187 646.818C382.187 649.826 384.668 651.706 388.39 651.706ZM384.781 659.639C377.111 659.639 371.283 654.676 371.283 647.42C371.283 640.088 376.923 635.84 386.961 635.238L397.113 634.637V631.967C397.113 628.208 394.481 626.027 390.345 626.027C386.247 626.027 383.653 628.057 383.126 631.027H373.088C373.501 623.207 380.156 617.831 390.834 617.831C401.173 617.831 407.903 623.169 407.903 631.291V659H397.301V652.834H397.075C394.819 657.12 389.819 659.639 384.781 659.639ZM415.272 659V604.747H426.251V659H415.272ZM449.223 651.706C453.998 651.706 457.946 648.585 457.946 644.224V641.292L449.449 641.818C445.351 642.119 443.02 643.961 443.02 646.818C443.02 649.826 445.501 651.706 449.223 651.706ZM445.614 659.639C437.944 659.639 432.116 654.676 432.116 647.42C432.116 640.088 437.756 635.84 447.794 635.238L457.946 634.637V631.967C457.946 628.208 455.314 626.027 451.178 626.027C447.08 626.027 444.486 628.057 443.959 631.027H433.921C434.334 623.207 440.989 617.831 451.667 617.831C462.006 617.831 468.736 623.169 468.736 631.291V659H458.134V652.834H457.908C455.652 657.12 450.652 659.639 445.614 659.639ZM475.842 659V618.695H486.445V625.876H486.67C488.813 620.876 493.062 617.943 499.266 617.943C508.214 617.943 513.252 623.583 513.252 633.02V659H502.273V635.313C502.273 630.05 499.792 627.042 494.867 627.042C489.941 627.042 486.821 630.651 486.821 635.877V659H475.842ZM556.828 633.697H546.639C546 629.448 543.18 626.44 538.668 626.44C533.254 626.44 529.87 631.027 529.87 638.81C529.87 646.743 533.254 651.255 538.706 651.255C543.104 651.255 545.962 648.623 546.639 644.224H556.865C556.301 653.736 549.195 659.865 538.593 659.865C526.449 659.865 518.741 651.969 518.741 638.81C518.741 625.876 526.449 617.831 538.518 617.831C549.421 617.831 556.339 624.561 556.828 633.697ZM580.251 625.952C575.438 625.952 571.979 629.599 571.604 634.637H588.71C588.485 629.486 585.139 625.952 580.251 625.952ZM588.861 646.668H598.937C597.734 654.563 590.515 659.865 580.552 659.865C568.145 659.865 560.7 651.932 560.7 639.036C560.7 626.177 568.22 617.831 580.138 617.831C591.869 617.831 599.275 625.764 599.275 638.021V641.367H571.491V642.043C571.491 647.796 575.138 651.744 580.74 651.744C584.763 651.744 587.846 649.751 588.861 646.668ZM619.917 659.639C609.84 659.639 603.486 651.668 603.486 638.772C603.486 625.989 609.878 618.056 619.992 618.056C625.819 618.056 630.331 621.139 632.286 625.613H632.512V604.747H643.49V659H632.662V652.082H632.474C630.519 656.519 625.857 659.639 619.917 659.639ZM623.639 626.854C618.112 626.854 614.728 631.479 614.728 638.848C614.728 646.254 618.112 650.804 623.639 650.804C629.09 650.804 632.587 646.217 632.587 638.848C632.587 631.516 629.09 626.854 623.639 626.854Z" fill="black"/>
<path d="M786 205.667C800.728 205.667 812.667 193.728 812.667 179C812.667 164.272 800.728 152.333 786 152.333C771.273 152.333 759.333 164.272 759.333 179C759.333 193.728 771.273 205.667 786 205.667Z" stroke="#FF0000" stroke-width="5" stroke-linecap="round" stroke-linejoin="round"/>
<path d="M794 171L778 187" stroke="#FF0000" stroke-width="5" stroke-linecap="round" stroke-linejoin="round"/>
<path d="M778 171L794 187" stroke="#FF0000" stroke-width="5" stroke-linecap="round" stroke-linejoin="round"/>
<path d="M713.667 629.547V632C713.664 637.75 711.801 643.346 708.358 647.952C704.915 652.557 700.076 655.927 694.561 657.557C689.047 659.188 683.153 658.992 677.759 656.999C672.365 655.006 667.759 651.323 664.629 646.499C661.5 641.675 660.013 635.968 660.391 630.23C660.77 624.492 662.993 619.03 666.729 614.659C670.465 610.288 675.514 607.241 681.123 605.974C686.732 604.706 692.601 605.286 697.854 607.627" stroke="#24B477" stroke-width="5" stroke-linecap="round" stroke-linejoin="round"/>
<path d="M713.667 610.667L687 637.36L679 629.36" stroke="#24B477" stroke-width="5" stroke-linecap="round" stroke-linejoin="round"/>
</svg>
